<?xml version="1.0" standalone="no"?>
<!DOCTYPE svg PUBLIC "-//W3C//DTD SVG 20010904//EN"
 "http://www.w3.org/TR/2001/REC-SVG-20010904/DTD/svg10.dtd">
<svg version="1.0" xmlns="http://www.w3.org/2000/svg"
 width="16.000000pt" height="16.000000pt" viewBox="0 0 16.000000 16.000000"
 preserveAspectRatio="xMidYMid meet">
<metadata>
Created by potrace 1.11, written by Peter Selinger 2001-2013
</metadata>
<g transform="translate(0.000000,16.000000) scale(0.003501,-0.003501)"
fill="#000000" stroke="none">
<path d="M0 4326 c0 -153 4 -247 10 -251 6 -3 10 -1 10 5 0 6 4 9 9 6 5 -4 7
2 4 13 -3 10 0 22 6 25 6 4 11 16 11 27 0 13 7 19 21 19 19 0 19 1 5 16 -16
15 -13 39 4 29 5 -3 11 4 15 15 3 11 10 20 15 20 5 0 11 8 15 18 3 11 16 24
28 29 12 6 23 20 24 31 2 24 42 82 57 82 6 0 30 19 54 42 34 35 45 40 52 28 5
-8 6 -18 3 -23 -3 -5 0 -8 8 -5 8 2 20 17 28 32 9 19 16 24 21 17 5 -9 10 -8
20 4 10 12 10 15 -4 15 -20 0 -20 9 1 32 16 17 9 18 -200 18 l-217 0 0 -244z"/>
<path d="M752 4550 c-9 -16 -10 -26 -1 -41 8 -16 8 -27 -2 -45 -9 -18 -10 -27
-2 -35 8 -8 6 -17 -8 -32 -10 -11 -19 -27 -19 -34 0 -7 -3 -13 -8 -13 -4 0
-13 -15 -20 -32 -8 -18 -18 -43 -24 -55 -6 -12 -9 -58 -6 -108 2 -47 1 -88 -4
-91 -4 -3 -9 -22 -9 -42 -2 -31 -3 -33 -6 -9 -5 33 -29 31 -26 -2 2 -11 -2
-21 -7 -21 -6 0 -10 5 -10 10 0 6 -4 10 -9 10 -9 0 -17 -33 -27 -117 -4 -28
-11 -43 -20 -43 -8 0 -14 -7 -14 -15 0 -8 -4 -15 -10 -15 -5 0 -13 -18 -16
-41 -5 -29 -13 -43 -29 -49 -12 -5 -31 -27 -42 -49 -11 -22 -15 -38 -9 -35 6
3 3 -1 -6 -9 -19 -15 -26 -63 -8 -52 6 3 10 0 10 -8 0 -8 -7 -17 -15 -21 -10
-3 -15 1 -15 12 0 15 -2 15 -10 2 -14 -22 -12 -40 5 -40 9 0 15 -9 15 -24 0
-25 -19 -48 -21 -24 0 7 -5 3 -11 -9 -6 -13 -15 -23 -20 -23 -4 0 -8 -20 -8
-44 0 -25 -5 -48 -10 -51 -6 -3 -10 -1 -10 5 0 6 -5 8 -10 5 -6 -3 -10 -19
-10 -35 0 -16 -5 -32 -10 -35 -6 -3 -10 4 -10 16 0 21 -1 22 -20 4 -15 -14
-20 -31 -20 -71 0 -29 -5 -65 -12 -79 -9 -21 -9 -28 1 -34 9 -6 7 -10 -8 -14
-12 -3 -21 -1 -21 4 0 5 -9 9 -20 9 -24 0 -25 -6 -6 -26 19 -19 9 -54 -17 -54
-11 0 -26 8 -33 18 -11 14 -15 15 -23 3 -14 -21 7 -36 64 -49 50 -10 50 -11
10 -10 -98 3 -175 -3 -175 -13 0 -16 251 -8 257 9 3 6 12 12 20 12 11 0 13 -5
8 -17 -15 -36 -15 -73 -1 -73 9 0 12 -7 9 -20 -3 -11 0 -20 6 -20 6 0 11 5 11
11 0 5 5 7 10 4 6 -3 10 -13 10 -21 0 -8 -4 -12 -10 -9 -5 3 -10 1 -10 -4 0
-6 -4 -11 -10 -11 -5 0 -10 7 -10 15 0 8 -5 15 -11 15 -5 0 -7 5 -4 11 4 6 -2
13 -14 16 -18 5 -19 8 -9 21 11 13 10 15 -5 9 -9 -3 -17 -2 -17 2 0 15 -32 22
-46 10 -9 -8 -42 -10 -94 -7 -75 4 -81 3 -84 -16 -8 -42 -5 -67 7 -62 7 3 20
9 30 12 10 4 16 12 13 19 -9 25 90 34 137 13 15 -7 27 -16 27 -20 0 -5 5 -8
10 -8 15 0 60 -46 60 -62 1 -15 24 -48 34 -48 3 0 6 12 6 26 0 14 -4 23 -10
19 -5 -3 -10 3 -10 14 0 29 13 26 28 -6 15 -33 16 -53 2 -53 -5 0 -10 -20 -10
-45 0 -25 -4 -45 -9 -45 -6 0 -11 -19 -13 -42 -2 -34 -8 -45 -28 -55 -14 -7
-19 -13 -12 -13 7 0 11 -4 7 -9 -3 -5 -1 -12 5 -16 5 -3 10 -19 10 -34 0 -22
-7 -30 -35 -41 -19 -8 -35 -17 -35 -22 0 -4 -40 -8 -90 -8 -53 0 -90 4 -90 10
0 6 -9 10 -20 10 -11 0 -20 -4 -20 -10 0 -5 7 -10 16 -10 8 0 12 -4 9 -10 -4
-6 7 -10 24 -10 17 0 31 -5 31 -11 0 -7 -11 -9 -27 -6 -51 10 -53 5 -53 -139
0 -111 3 -134 15 -134 9 0 12 -6 9 -15 -4 -10 0 -15 13 -15 11 0 20 -6 20 -14
0 -9 -8 -13 -23 -10 -17 3 -22 0 -18 -10 3 -8 1 -17 -5 -21 -8 -4 -11 -175
-11 -551 0 -455 2 -544 14 -544 20 0 86 -64 86 -83 0 -9 5 -17 10 -17 6 0 10
-11 10 -25 0 -14 5 -25 10 -25 6 0 10 -10 10 -23 0 -27 53 -113 59 -96 2 6 -2
15 -9 19 -7 4 -10 12 -7 17 3 5 2 15 -3 23 -6 9 -3 18 8 26 9 7 13 16 9 20 -4
5 -12 2 -16 -5 -6 -10 -11 -5 -16 18 -4 20 -2 37 5 46 13 16 34 10 25 -6 -4
-5 1 -9 9 -9 9 0 16 -9 16 -20 0 -13 9 -22 25 -26 13 -3 35 -19 47 -35 13 -16
31 -29 41 -29 9 0 17 -3 17 -8 0 -4 16 -16 35 -26 19 -11 35 -23 35 -28 0 -4
6 -8 13 -8 6 0 23 -9 37 -20 14 -11 33 -20 43 -20 10 0 15 -4 12 -10 -3 -5
-19 -10 -36 -10 -16 0 -29 -4 -29 -10 0 -6 -27 -10 -60 -10 -33 0 -60 -4 -60
-10 0 -18 -58 -11 -63 8 -3 9 -5 0 -6 -20 0 -21 4 -38 9 -38 6 0 10 5 10 10 0
6 18 10 40 10 22 0 40 4 40 9 0 5 19 12 43 15 23 3 61 8 85 12 l42 6 0 -111
c0 -67 4 -111 10 -111 6 0 10 44 10 113 l0 114 30 -5 c17 -2 33 -8 36 -13 3
-5 16 -9 30 -9 13 0 24 -4 24 -10 0 -5 11 -10 25 -10 14 0 25 -4 25 -10 0 -5
9 -10 20 -10 11 0 20 -4 20 -10 0 -5 12 -10 26 -10 14 0 23 -4 19 -10 -3 -5 3
-10 14 -10 12 0 21 -4 21 -10 0 -5 9 -10 20 -10 11 0 20 -4 20 -10 0 -5 9 -10
20 -10 11 0 20 -4 20 -10 0 -5 6 -10 14 -10 8 0 16 -3 18 -8 2 -4 32 -30 68
-57 68 -53 142 -125 225 -220 28 -32 59 -67 70 -79 12 -12 24 -29 28 -39 7
-18 37 -24 37 -7 0 6 -4 10 -10 10 -5 0 -10 7 -10 16 0 9 -8 23 -17 30 -17 12
-17 13 -1 14 17 0 31 -15 34 -37 1 -7 9 -19 17 -28 14 -13 76 -15 462 -15 443
0 446 0 475 22 17 12 30 28 30 35 0 8 7 16 15 19 8 4 15 14 16 23 0 10 2 11 6
4 6 -17 33 -17 33 0 0 15 67 70 80 65 11 -3 -37 -101 -52 -106 -4 -2 -15 -17
-23 -33 l-16 -29 267 0 267 0 55 53 c30 28 70 67 88 84 18 18 37 33 41 33 5 0
15 9 23 20 8 11 20 20 27 20 7 0 13 5 13 10 0 6 7 10 15 10 8 0 15 5 15 10 0
6 8 10 18 10 10 0 24 9 32 20 8 11 22 20 32 20 10 0 18 5 18 10 0 6 6 10 14
10 8 0 39 13 68 29 29 15 65 31 81 35 15 3 27 11 27 16 0 6 7 10 15 10 8 0 24
5 35 10 11 6 29 14 40 20 11 5 29 10 40 10 11 0 20 5 20 10 0 6 9 10 20 10 11
0 20 5 20 10 0 6 9 10 20 10 14 0 20 -7 20 -23 0 -13 -4 -27 -9 -32 -5 -6 -23
-53 -40 -105 -18 -52 -39 -107 -47 -122 -7 -14 -14 -33 -14 -42 0 -9 -4 -16
-10 -16 -5 0 -10 -9 -10 -20 0 -11 5 -20 10 -20 6 0 10 8 10 19 0 24 38 35 42
13 5 -27 -29 -54 -52 -42 -26 14 -30 13 -30 -10 0 -11 -4 -20 -8 -20 -4 0 -16
-13 -25 -30 -23 -38 -4 -40 31 -2 15 15 45 36 67 47 27 14 41 29 43 45 4 28
16 40 57 59 17 7 40 18 53 24 29 14 28 27 -2 27 -41 0 -67 37 -48 68 6 9 13 7
30 -8 11 -11 33 -20 47 -20 14 0 25 -4 25 -10 0 -5 23 -10 50 -10 28 0 50 5
50 10 0 6 28 10 65 10 37 0 65 4 65 10 0 6 33 10 80 10 47 0 80 -4 80 -10 0
-5 11 -10 25 -10 14 0 25 -4 25 -10 0 -5 7 -10 16 -10 14 0 71 -34 84 -50 3
-4 14 -10 25 -14 25 -10 13 -15 -66 -25 l-64 -8 61 -2 c34 0 72 -7 85 -14 48
-26 69 -42 69 -54 0 -7 4 -13 9 -13 5 0 12 -10 16 -22 7 -22 8 -22 12 6 3 16
0 33 -6 39 -6 6 -11 25 -10 42 1 29 1 29 9 5 5 -15 8 42 9 140 1 127 -2 161
-11 152 -7 -7 -21 -12 -32 -12 -10 0 -16 -3 -13 -7 10 -10 -42 -33 -75 -33
-16 0 -36 -7 -44 -15 -19 -19 -64 -31 -73 -19 -3 5 -21 9 -40 9 -20 0 -36 6
-39 14 -3 10 2 13 22 9 29 -6 34 3 11 22 -10 9 -15 9 -15 1 0 -17 -14 -13 -40
9 -13 11 -43 30 -67 42 -33 16 -43 27 -43 45 0 14 4 21 10 18 6 -3 10 1 10 9
0 13 12 16 54 16 30 0 58 4 61 10 8 13 65 13 65 1 0 -5 -10 -11 -22 -13 -23
-3 -22 -4 5 -22 15 -10 31 -16 34 -12 4 4 -4 10 -17 13 l-25 7 29 7 c33 9 55
1 35 -12 -9 -5 5 -6 32 -3 30 4 49 2 53 -5 4 -6 19 -11 34 -10 l27 1 -25 8
c-14 4 -21 8 -16 9 5 1 3 7 -3 15 -9 11 -9 15 1 19 7 3 -6 6 -29 6 -23 1 -45
5 -48 11 -3 5 -17 10 -31 10 -13 0 -24 4 -24 9 0 5 -9 13 -20 16 -11 4 -18 11
-15 16 4 5 -1 9 -9 9 -10 0 -16 9 -16 25 0 24 2 25 65 25 50 0 66 -4 74 -17 6
-10 11 -13 11 -6 0 21 42 0 85 -43 23 -24 40 -46 37 -49 -3 -3 4 -5 16 -5 29
0 28 13 -1 29 -24 13 -47 61 -47 96 0 18 -1 18 -13 2 -11 -16 -15 -14 -50 19
-26 26 -37 45 -37 66 0 21 -10 39 -31 59 -17 16 -35 29 -40 29 -5 0 -9 6 -9
13 0 11 24 24 71 40 12 4 15 13 11 33 -4 22 -2 26 11 21 9 -3 19 -2 22 3 4 6
21 10 38 11 18 0 46 8 62 18 l30 18 1 979 c0 538 -1 962 -3 941 l-4 -38 -57 3
-57 3 -9 -47 c-7 -36 -14 -48 -27 -48 -12 0 -16 -5 -13 -14 6 -15 -24 -56 -39
-56 -5 0 -7 10 -3 23 5 21 2 23 -32 24 -33 2 -39 -2 -52 -30 -18 -42 -34 -57
-59 -57 -12 0 -21 -4 -21 -10 0 -5 -13 -10 -30 -10 -16 0 -30 -4 -30 -10 0
-14 67 -13 72 1 2 6 13 9 23 7 20 -5 20 -5 0 -13 -24 -11 -35 -21 -58 -57 -17
-28 -47 -38 -47 -17 0 5 -5 7 -11 4 -6 -5 -4 -12 8 -21 17 -14 16 -15 -7 -10
-14 3 -19 3 -12 0 19 -9 14 -24 -8 -24 -11 0 -20 -4 -20 -10 0 -5 -9 -10 -20
-10 -10 0 -24 -8 -29 -18 -8 -13 -11 3 -12 63 -1 44 -1 83 0 88 0 4 -3 7 -8 7
-5 0 -11 15 -14 33 -3 17 -8 42 -12 54 -6 18 -4 21 14 16 11 -3 23 -14 26 -24
10 -29 46 -59 72 -59 13 0 23 5 23 11 0 5 -4 8 -9 5 -12 -8 -47 24 -55 50 -8
27 -40 64 -55 64 -6 0 -11 9 -11 19 0 11 -5 21 -12 23 -17 6 -1 58 18 58 8 0
12 5 9 10 -3 6 3 10 14 10 11 0 23 5 26 10 8 13 55 13 55 1 0 -5 -9 -13 -20
-16 -11 -3 -20 -13 -20 -21 0 -8 -4 -14 -10 -14 -5 0 -10 -12 -9 -27 l0 -28
12 25 c27 58 73 90 129 90 33 0 43 -9 75 -69 7 -13 13 -36 13 -52 0 -16 5 -29
10 -29 16 0 12 80 -5 96 -8 9 -15 23 -15 32 0 10 -8 22 -19 29 -25 15 -209 22
-219 7 -13 -20 -40 -23 -54 -6 -10 12 -10 14 0 8 18 -11 42 12 42 40 0 17 4
22 15 18 8 -4 17 1 21 10 3 9 13 16 21 16 8 0 21 7 29 15 9 8 20 15 25 15 5 0
10 -7 10 -15 3 -32 4 -36 19 -45 20 -12 32 -2 21 19 -11 20 -4 61 10 61 5 0 9
-11 9 -25 0 -14 5 -25 11 -25 6 0 8 -9 4 -22 -7 -23 -7 -23 9 -3 15 19 17 19
27 3 11 -19 49 -25 49 -8 0 6 -7 10 -15 10 -8 0 -15 5 -15 10 0 6 -7 10 -15
10 -20 0 -20 39 0 46 8 4 15 12 15 20 0 8 7 14 15 14 12 0 15 13 15 56 0 47 3
55 18 52 14 -3 17 -13 15 -58 -1 -30 1 -46 4 -35 3 11 14 29 26 39 18 18 18
20 3 26 -14 5 -11 11 19 40 20 19 31 37 25 40 -6 4 -8 13 -5 21 4 10 17 13 46
11 47 -5 59 6 59 54 0 19 9 39 25 54 14 13 25 30 25 37 0 8 7 16 15 19 13 5
15 34 15 174 0 152 -2 169 -17 173 -17 4 -17 5 0 6 41 3 8 70 -35 71 -10 0
-18 5 -18 10 0 6 -7 10 -15 10 -26 0 -44 41 -38 88 3 23 11 42 17 42 6 0 16
10 21 23 8 17 6 26 -7 40 -10 9 -21 17 -24 17 -10 0 -34 28 -34 39 0 6 7 11
16 11 8 0 12 5 9 10 -4 6 11 10 37 10 70 0 88 8 88 41 0 16 -7 32 -17 38 -17
10 -16 10 2 11 35 1 -6 20 -42 20 -18 0 -33 5 -33 10 0 6 -5 10 -11 10 -5 0
-7 -5 -3 -12 4 -7 3 -8 -4 -4 -15 9 -16 36 -2 36 6 0 24 -7 40 -15 31 -16 49
-5 24 15 -8 7 -13 19 -10 26 3 7 1 16 -5 19 -14 9 -1 25 16 19 8 -4 13 -9 11
-13 -2 -3 4 -22 15 -41 l18 -35 1 77 0 78 -30 -7 c-25 -4 -29 -3 -24 10 3 9
18 20 32 26 18 6 21 10 10 10 -19 1 -26 21 -7 21 5 0 7 4 4 10 -3 5 -24 -7
-45 -28 -22 -20 -35 -38 -30 -40 13 -5 13 -42 0 -42 -5 0 -10 -7 -10 -15 0 -8
4 -15 9 -15 5 0 7 -9 4 -20 -10 -38 -20 -20 -22 42 -1 35 -7 66 -14 70 -9 6
-9 8 0 8 7 0 10 7 6 16 -4 11 -1 15 12 12 10 -2 20 3 22 10 6 17 -35 16 -53
-2 -10 -11 -14 -42 -14 -118 0 -57 -4 -98 -8 -91 -6 9 -11 7 -20 -7 -7 -12 -8
-20 -2 -20 5 0 10 -11 10 -25 0 -14 -4 -25 -10 -25 -5 0 -10 -7 -10 -15 0 -18
-16 -20 -23 -2 -4 9 -8 9 -15 -2 -5 -7 -15 -12 -22 -9 -9 3 -8 8 4 20 9 9 16
21 16 27 0 6 5 11 10 11 6 0 10 12 10 26 0 14 4 23 10 19 6 -4 10 5 10 19 0
17 6 26 16 26 8 0 12 5 9 10 -4 6 -11 8 -16 5 -5 -4 -9 -1 -9 4 0 14 -37 14
-45 1 -3 -6 1 -7 9 -4 19 7 20 1 4 -29 -30 -53 -46 -68 -55 -53 -7 12 -10 12
-21 0 -11 -12 -10 -14 3 -14 8 0 15 -9 15 -20 0 -11 -4 -20 -10 -20 -5 0 -10
-7 -10 -15 0 -8 -4 -15 -10 -15 -5 0 -10 5 -10 11 0 5 -4 8 -10 4 -5 -3 -7
-12 -3 -20 3 -10 -1 -15 -12 -15 -9 0 -13 -4 -10 -10 3 -5 -1 -10 -9 -10 -9 0
-16 -4 -16 -9 0 -10 -65 -43 -95 -48 -11 -2 -24 -8 -29 -13 -6 -6 -17 -10 -26
-10 -9 0 -21 -5 -28 -12 -17 -17 -82 -37 -111 -34 -14 2 -18 1 -7 -1 16 -4 14
-8 -13 -24 -17 -10 -41 -19 -54 -19 -18 0 -19 -2 -7 -10 13 -8 12 -10 -2 -10
-11 0 -18 -8 -18 -19 0 -29 18 -36 41 -15 10 9 19 12 19 6 0 -6 -6 -13 -12
-15 -10 -4 -10 -8 1 -15 11 -8 11 -10 0 -15 -10 -4 -10 -6 -1 -6 16 -1 15 -29
-2 -46 -18 -19 -78 -23 -84 -7 -2 6 -13 12 -25 12 -26 0 -116 81 -136 122 -8
15 -18 25 -23 22 -4 -3 -8 31 -8 76 0 45 4 79 9 76 4 -3 17 1 27 9 19 13 19
14 -1 29 -17 13 -17 15 -3 16 12 0 15 6 10 22 -4 17 -2 20 12 15 11 -4 16 -2
14 6 -5 21 47 76 68 73 11 -2 13 -1 7 1 -18 6 -16 13 10 35 12 11 34 30 49 44
15 13 32 24 38 24 5 0 10 6 10 14 0 8 7 16 14 19 9 4 14 1 12 -6 -1 -7 2 -3 7
9 5 11 23 29 38 40 36 24 37 34 1 34 -16 0 -34 -8 -42 -20 -8 -11 -19 -20 -26
-20 -6 0 -19 -9 -29 -20 -10 -11 -25 -20 -33 -20 -9 0 -13 -3 -10 -6 4 -3 -12
-22 -35 -42 -55 -50 -87 -82 -87 -88 0 -2 -13 -18 -29 -35 -17 -17 -31 -40
-33 -52 -2 -14 -11 -23 -26 -25 -13 -2 -21 1 -20 8 4 14 -315 14 -320 0 -2 -6
-21 -10 -42 -10 -21 0 -42 -4 -45 -10 -3 -5 -17 -10 -31 -10 -13 0 -32 -4 -42
-9 -9 -5 -35 -17 -56 -26 -22 -10 -61 -30 -87 -46 -26 -15 -50 -25 -53 -22 -3
4 -6 -1 -6 -10 0 -10 -4 -17 -10 -17 -5 0 -10 5 -10 10 0 17 148 162 159 156
5 -3 14 1 21 9 7 8 21 15 31 15 11 0 19 5 19 10 0 6 20 10 45 10 25 0 45 5 45
10 0 6 9 10 20 10 33 0 23 14 -22 30 -55 18 -248 22 -304 5 -47 -14 -74 -5
-74 25 0 13 -9 20 -27 23 l-28 4 29 2 c28 1 28 2 22 41 -6 36 -4 40 15 40 19
0 21 -5 17 -45 -2 -27 1 -44 7 -42 11 4 11 -1 1 95 l-9 72 -52 0 c-51 0 -52 0
-61 -37 -10 -39 -33 -57 -35 -26 0 14 -2 14 -6 3 -10 -24 -31 -41 -53 -43 -17
-1 -20 -6 -15 -29 13 -57 -16 -88 -44 -49 -8 11 -23 18 -34 15 -30 -5 -31 -11
-2 -18 16 -4 25 -13 25 -26 0 -11 5 -20 11 -20 7 0 9 -11 6 -30 -5 -23 -3 -30
9 -30 8 0 21 -6 28 -13 19 -18 4 -50 -38 -82 -20 -15 -36 -33 -36 -40 0 -15
-43 -35 -75 -35 -14 0 -25 5 -25 11 0 6 -8 9 -17 7 -21 -4 -53 49 -53 86 0 34
-16 41 -17 8 -1 -47 -3 -51 -15 -48 -7 3 -25 7 -39 10 -16 3 -29 15 -32 27 -5
17 -11 20 -28 16 -13 -4 -28 -2 -34 3 -5 4 -25 10 -43 12 l-33 3 22 24 22 23
17 -22 c14 -19 18 -20 23 -7 3 9 0 22 -7 29 -7 7 -11 19 -8 26 6 19 -26 14
-49 -7 -24 -22 -63 -30 -99 -20 -21 6 -19 7 15 9 39 2 39 3 10 10 -29 7 -29 8
10 9 46 2 71 14 61 30 -13 21 26 25 41 5 8 -10 24 -18 36 -17 12 1 16 0 10 -3
-19 -8 -16 -27 3 -20 13 5 15 0 12 -34 -2 -22 1 -41 7 -43 21 -8 35 6 35 34 0
18 -4 28 -10 24 -6 -4 -10 5 -10 20 0 26 1 26 59 24 49 -2 62 1 82 20 13 12
40 29 59 38 22 9 30 17 21 20 -7 3 -16 1 -20 -5 -4 -6 -15 -10 -26 -8 -11 2
-23 -1 -26 -6 -3 -5 -15 -10 -27 -11 -11 0 -20 -6 -19 -11 1 -6 -34 -11 -80
-13 -69 -3 -83 -1 -83 12 0 9 9 15 25 15 14 0 25 5 25 11 0 6 -6 9 -12 6 -10
-3 -12 15 -10 79 l3 84 -30 0 c-20 0 -31 -6 -34 -17 -4 -17 -5 -17 -6 0 -1 14
-11 17 -52 17 -31 0 -56 -6 -65 -15 -13 -13 -18 -13 -39 1 -25 16 -27 15 -50
-30 -5 -11 -23 -27 -40 -36 -16 -9 -36 -30 -44 -48 -12 -26 -20 -31 -55 -34
-44 -3 -56 -21 -18 -26 40 -6 12 -22 -38 -22 -27 0 -51 -4 -55 -9 -8 -14 30
-23 68 -17 17 3 25 3 17 0 -8 -4 -20 -13 -27 -21 -7 -10 -25 -13 -55 -11 -41
4 -42 4 -18 16 23 11 22 11 -13 6 -37 -6 -51 -2 -120 32 -16 8 -34 14 -40 14
-7 0 -29 11 -50 25 -30 21 -37 23 -37 10 0 -19 23 -45 39 -45 6 0 11 -4 11
-10 0 -5 9 -10 21 -10 11 0 17 -4 14 -10 -4 -6 5 -10 19 -10 14 0 26 -4 26
-10 0 -5 14 -10 30 -10 17 0 30 -4 30 -10 0 -5 19 -10 43 -10 28 0 37 -3 28
-9 -15 -9 10 -13 219 -30 97 -8 211 -28 270 -48 46 -15 131 -64 136 -77 3 -8
14 -12 24 -9 12 3 20 -2 25 -16 3 -12 11 -21 16 -21 12 0 49 -37 49 -50 0 -5
6 -10 13 -10 7 0 18 -9 25 -20 20 -32 31 -23 25 20 -5 33 -2 45 16 61 22 20
29 35 11 24 -6 -3 -10 -2 -10 4 0 5 9 13 20 16 11 3 20 11 20 16 0 11 60 65
69 63 3 -1 15 9 26 22 11 13 28 24 38 24 9 0 17 5 17 10 0 6 7 10 15 10 8 0
15 5 15 10 0 6 12 10 26 10 14 0 23 4 19 10 -4 6 8 10 29 10 19 0 38 5 41 10
3 6 33 10 65 10 32 0 62 5 65 10 3 6 35 10 71 10 36 0 64 -4 64 -10 0 -5 -13
-10 -30 -10 -16 0 -30 -4 -30 -10 0 -5 -9 -10 -20 -10 -11 0 -20 -4 -20 -10 0
-5 -6 -10 -13 -10 -7 0 -23 -9 -35 -20 -12 -11 -24 -20 -28 -20 -9 0 -74 -74
-74 -85 0 -6 -9 -17 -20 -25 -11 -8 -20 -23 -20 -34 0 -11 -3 -17 -6 -14 -3 4
-18 -7 -33 -23 -15 -16 -31 -26 -34 -22 -4 3 -7 -1 -7 -10 0 -12 9 -17 30 -17
17 0 30 5 30 10 0 6 10 10 23 10 18 0 19 2 7 10 -11 7 -7 10 18 10 17 0 32 5
32 10 0 6 7 10 15 10 8 0 15 5 15 10 0 6 7 10 15 10 8 0 15 5 15 10 0 6 7 10
15 10 17 0 56 20 66 34 4 5 21 7 38 4 24 -4 28 -2 20 9 -9 10 -7 13 8 13 10 0
23 4 29 9 29 29 256 52 372 38 46 -6 69 -17 34 -17 -11 0 -24 -4 -27 -10 -3
-5 -17 -10 -31 -10 -13 0 -24 -4 -24 -8 0 -5 -12 -15 -27 -23 -16 -8 -33 -18
-39 -24 -6 -5 -22 -17 -34 -25 -20 -13 -61 -45 -123 -96 -9 -8 -21 -14 -26
-14 -5 0 -12 -7 -15 -16 -3 -8 -10 -12 -16 -9 -5 3 -10 1 -10 -4 0 -14 -67
-14 -75 -1 -3 6 -30 10 -60 10 -30 0 -57 -4 -60 -10 -4 -6 8 -10 30 -10 19 0
43 -4 53 -9 9 -6 46 -17 81 -25 36 -9 67 -19 70 -23 8 -11 49 -33 61 -33 6 0
20 -9 32 -20 12 -11 29 -20 38 -20 8 0 22 -9 30 -20 8 -11 23 -20 34 -20 11 0
17 -3 13 -6 -7 -8 17 -34 32 -34 6 0 11 -6 11 -14 0 -8 9 -17 19 -21 10 -3 24
-19 31 -35 6 -16 20 -36 30 -45 9 -8 26 -36 36 -60 10 -25 22 -45 26 -45 4 0
8 -9 8 -19 0 -11 5 -23 10 -26 6 -3 10 -15 10 -26 0 -10 5 -19 10 -19 6 0 10
-19 10 -42 0 -32 3 -39 10 -28 7 11 10 0 10 -37 0 -28 5 -55 10 -58 6 -3 10
-28 10 -56 0 -27 -4 -49 -10 -49 -5 0 -10 16 -10 36 0 21 -4 33 -10 29 -5 -3
-10 3 -10 14 0 12 -5 21 -11 21 -6 0 -9 9 -6 20 3 13 0 20 -9 20 -8 0 -14 9
-14 21 0 11 -4 17 -10 14 -6 -3 -10 4 -10 17 0 18 -2 20 -10 8 -7 -11 -10 0
-10 38 0 28 -4 52 -10 52 -5 0 -10 9 -10 19 0 11 -4 21 -8 23 -5 2 -23 29 -40
60 -41 71 -115 148 -142 148 -6 0 -10 5 -10 12 0 6 -3 9 -6 6 -8 -9 59 -107
78 -113 9 -3 19 -17 22 -30 4 -14 13 -25 21 -25 8 0 15 -6 15 -13 0 -7 11 -36
25 -64 14 -28 27 -64 29 -79 3 -16 7 -36 11 -45 3 -10 2 -20 -4 -24 -6 -3 -11
1 -11 9 0 9 -4 16 -10 16 -5 0 -10 6 -10 12 0 7 -11 24 -24 38 -94 96 -153
150 -168 150 -10 0 -18 7 -18 15 0 8 -4 15 -9 15 -4 0 -26 12 -47 26 -23 16
-54 27 -76 28 -23 0 -38 6 -38 14 0 7 -13 12 -29 12 -17 0 -33 5 -36 10 -3 6
-24 10 -46 10 -21 0 -39 5 -39 10 0 6 -33 10 -80 10 -73 0 -80 2 -80 20 0 13
-7 20 -20 20 -11 0 -20 -4 -20 -10 0 -5 6 -10 13 -10 9 0 9 -2 0 -8 -7 -5 -14
-20 -15 -35 -1 -15 -6 -27 -10 -27 -4 0 -8 -6 -8 -14 0 -7 -20 -54 -45 -104
-25 -50 -45 -96 -45 -102 0 -7 -7 -10 -16 -6 -12 5 -15 2 -10 -9 5 -14 -8 -49
-24 -65 -3 -3 -11 -18 -19 -35 -7 -16 -17 -38 -22 -47 -5 -10 -9 -25 -9 -33 0
-8 -4 -15 -10 -15 -5 0 -10 -13 -10 -30 0 -16 -4 -30 -10 -30 -5 0 -10 -13
-10 -29 0 -16 -4 -31 -9 -33 -5 -1 -11 -19 -14 -39 -2 -19 -9 -45 -16 -57 -6
-12 -10 -25 -9 -29 1 -4 -2 -39 -7 -78 -4 -38 -7 -103 -6 -142 2 -40 0 -73 -4
-73 -19 0 -61 66 -56 89 1 7 -2 10 -8 6 -6 -3 -11 -1 -11 4 0 22 -1 27 -14 47
-8 11 -16 45 -19 75 -3 30 -8 65 -10 79 -2 14 -2 29 0 33 3 5 7 40 10 77 2 38
13 100 24 137 12 37 23 85 26 105 3 21 9 35 14 32 5 -3 9 3 9 13 0 11 5 24 11
30 7 7 9 23 5 37 -5 22 -9 24 -24 15 -17 -11 -42 -72 -42 -104 0 -8 -4 -15
-10 -15 -5 0 -10 -13 -10 -29 0 -17 -4 -33 -10 -36 -5 -3 -10 -26 -10 -51 0
-24 -4 -44 -10 -44 -6 0 -10 -29 -10 -66 0 -41 -4 -63 -10 -59 -5 3 -10 1 -10
-5 0 -6 -15 -26 -32 -45 -18 -18 -41 -44 -51 -57 -13 -16 -17 -18 -13 -5 9 29
-2 19 -20 -18 -10 -22 -23 -35 -36 -35 -10 0 -18 -3 -16 -7 2 -5 -13 -24 -34
-44 -21 -21 -38 -35 -38 -33 0 3 -16 -11 -35 -30 -19 -20 -35 -37 -35 -40 0
-9 -70 -76 -80 -76 -6 0 -9 -4 -6 -8 3 -5 -6 -15 -19 -22 -13 -7 -22 -16 -20
-20 2 -4 -6 -16 -19 -27 -13 -12 -26 -27 -29 -34 -5 -12 -7 -12 -15 0 -7 9
-12 10 -16 2 -4 -6 -2 -11 3 -11 16 0 13 -14 -8 -36 -10 -11 -24 -30 -30 -43
-13 -24 -35 -52 -63 -83 -10 -10 -18 -23 -18 -29 0 -6 -10 -30 -21 -53 -12
-22 -25 -49 -30 -58 -5 -10 -9 -26 -9 -36 0 -10 -4 -22 -9 -28 -6 -5 -11 -31
-13 -59 l-3 -50 -16 35 c-9 19 -21 51 -27 71 -14 42 -16 265 -3 274 8 4 19 53
26 110 1 12 13 43 24 65 4 8 14 36 22 63 7 26 17 47 21 47 4 0 8 7 8 15 0 15
19 55 31 65 3 3 12 20 20 38 8 17 18 32 22 32 5 0 5 5 2 10 -3 6 -2 10 4 10
12 0 51 81 51 105 0 13 -4 14 -20 5 -11 -6 -20 -17 -20 -25 0 -8 -4 -15 -9
-15 -5 0 -13 -10 -16 -22 -4 -13 -17 -36 -29 -53 -12 -16 -30 -48 -40 -70 -10
-22 -29 -62 -42 -89 -13 -28 -24 -58 -24 -68 0 -10 -4 -18 -10 -18 -5 0 -10
-13 -10 -30 0 -16 -4 -30 -10 -30 -5 0 -10 -14 -10 -31 0 -17 -4 -28 -10 -24
-6 4 -10 -18 -10 -59 0 -37 -4 -66 -10 -66 -6 0 -10 -40 -10 -99 0 -56 4 -103
10 -106 6 -3 10 -24 10 -45 0 -21 5 -42 10 -45 6 -3 10 -15 10 -26 0 -10 5
-19 10 -19 6 0 10 -6 10 -13 0 -19 51 -77 67 -77 12 0 14 11 8 59 -4 38 -3 61
4 65 6 4 11 25 11 47 0 21 5 39 10 39 6 0 10 14 10 30 0 17 5 30 10 30 6 0 10
6 10 13 0 18 24 67 33 67 4 0 7 6 7 14 0 7 14 27 30 44 17 18 30 37 30 43 0
11 84 119 129 166 11 12 21 27 21 32 0 5 8 12 18 15 11 4 25 17 32 31 7 13 16
24 19 23 20 -2 31 3 26 12 -3 6 -1 10 5 10 6 0 8 5 5 10 -4 6 -3 9 2 8 5 -2
32 20 61 49 l52 52 0 -40 c0 -22 -3 -38 -8 -36 -4 3 -8 -149 -9 -336 -2 -220
-6 -343 -13 -345 -5 -2 -10 -26 -10 -53 0 -27 -4 -49 -10 -49 -5 0 -10 -16
-10 -35 0 -28 4 -35 19 -35 24 0 27 7 41 124 7 53 14 95 16 94 5 -6 19 -321
18 -428 -1 -93 -8 -160 -30 -293 -3 -20 -10 -37 -15 -37 -5 0 -9 -13 -9 -29 0
-17 -4 -33 -10 -36 -5 -3 -10 -15 -10 -26 0 -10 -4 -19 -10 -19 -5 0 -10 -9
-10 -20 0 -12 -9 -30 -20 -42 -11 -12 -20 -28 -20 -35 0 -7 -4 -13 -10 -13 -5
0 -10 -6 -10 -14 0 -8 -9 -18 -21 -21 -11 -4 -18 -9 -16 -11 6 -6 -52 -64 -64
-64 -5 0 -9 -4 -9 -10 0 -5 -7 -10 -15 -10 -8 0 -15 -4 -15 -10 0 -5 -11 -10
-24 -10 -14 0 -28 -5 -31 -10 -3 -6 -14 -10 -25 -10 -13 0 -17 5 -13 20 3 11
9 20 14 20 5 0 9 11 9 25 0 14 7 28 15 31 8 4 15 15 15 25 0 10 5 19 11 19 5
0 7 5 4 10 -4 6 1 24 9 42 9 17 16 39 16 49 0 10 4 21 10 24 5 3 10 26 10 51
0 24 5 44 10 44 6 0 10 25 10 55 0 34 4 55 11 55 16 0 5 313 -12 360 l-13 35
-8 -35 c-4 -19 -7 -70 -6 -113 1 -48 -3 -82 -10 -89 -7 -7 -12 -20 -12 -30 0
-9 -9 -33 -20 -53 -11 -20 -20 -42 -20 -50 0 -8 -4 -15 -10 -15 -5 0 -10 -9
-10 -20 0 -11 -4 -20 -8 -20 -5 0 -19 -14 -31 -31 -13 -18 -19 -29 -12 -25 19
12 12 -4 -14 -30 -16 -16 -32 -23 -42 -20 -13 5 -14 4 -4 -8 10 -12 1 -26 -51
-78 -117 -115 -178 -168 -193 -168 -8 0 -15 -4 -15 -10 0 -5 -7 -10 -15 -10
-8 0 -15 -4 -15 -10 0 -5 -9 -10 -19 -10 -11 0 -23 -5 -26 -10 -3 -6 -17 -10
-31 -10 -13 0 -24 -4 -24 -8 0 -4 -13 -9 -30 -10 -31 -2 -41 16 -20 41 39 46
50 61 50 68 0 4 6 14 13 21 7 7 24 32 37 56 13 23 27 42 32 42 4 0 8 14 8 30
0 17 5 30 10 30 6 0 10 9 10 20 0 11 5 20 10 20 6 0 10 14 10 30 0 17 5 30 10
30 6 0 10 16 10 35 0 19 5 35 10 35 6 0 10 22 10 48 0 26 4 52 10 58 13 13 18
248 5 252 -6 1 -11 -23 -13 -55 -2 -32 -8 -63 -14 -70 -5 -7 -10 -40 -9 -73 0
-49 -2 -60 -16 -60 -9 0 -14 -3 -10 -6 5 -6 -34 -52 -98 -115 -58 -57 -74 -69
-93 -69 -10 0 -22 -3 -26 -7 -11 -11 -46 -14 -46 -3 0 6 7 10 15 10 15 0 95
76 95 90 0 14 29 19 33 7 2 -7 2 -2 0 11 -2 14 5 31 21 47 26 26 86 140 86
162 0 21 -38 15 -45 -7 -3 -11 -13 -20 -21 -20 -8 0 -12 -5 -9 -10 3 -5 1 -10
-5 -10 -7 0 -25 -13 -40 -30 -15 -16 -36 -30 -47 -30 -10 0 -25 -9 -33 -20 -8
-11 -20 -20 -28 -20 -7 0 -18 -5 -25 -11 -18 -16 -86 -56 -139 -80 -27 -13
-48 -26 -48 -31 0 -4 -9 -8 -20 -8 -13 0 -20 -7 -20 -20 0 -11 -4 -20 -10 -20
-16 0 -11 37 10 75 11 20 20 42 20 50 0 8 3 15 8 15 4 0 21 21 37 45 17 25 34
45 38 45 5 0 6 4 2 9 -3 6 15 31 40 56 25 26 45 50 45 55 0 4 11 18 24 31 14
13 21 30 18 41 -6 26 -16 23 -45 -14 -46 -61 -65 -78 -78 -75 -8 2 -11 2 -6 0
13 -8 8 -21 -18 -47 -14 -14 -25 -31 -25 -38 0 -8 -9 -20 -20 -28 -11 -8 -20
-22 -20 -32 0 -10 -4 -18 -10 -18 -5 0 -10 -7 -10 -15 0 -8 -4 -15 -10 -15 -5
0 -10 -9 -10 -20 0 -11 -4 -20 -10 -20 -5 0 -10 -9 -10 -20 0 -11 -9 -25 -20
-32 -11 -7 -20 -20 -20 -29 0 -9 -7 -22 -15 -29 -8 -7 -15 -19 -15 -26 0 -7
-9 -29 -20 -49 -11 -20 -20 -49 -20 -65 0 -16 -5 -32 -10 -35 -14 -9 -50 72
-50 113 0 17 -5 32 -11 32 -15 0 -6 188 14 273 9 38 17 86 19 108 1 22 8 45
15 51 7 6 13 21 13 35 0 14 4 21 10 18 6 -4 10 10 10 34 0 23 5 41 10 41 6 0
10 9 10 20 0 11 5 20 10 20 6 0 10 10 10 22 0 11 11 35 24 52 27 35 44 96 27
96 -6 0 -11 -5 -11 -11 0 -7 -11 -22 -26 -35 -14 -13 -22 -24 -19 -24 3 0 -6
-18 -20 -40 -14 -22 -25 -46 -25 -54 0 -8 -5 -18 -10 -21 -6 -3 -10 -17 -10
-30 0 -13 -4 -27 -10 -30 -5 -3 -10 -15 -10 -26 0 -10 -4 -19 -10 -19 -5 0
-10 -21 -10 -46 0 -27 -4 -43 -10 -39 -6 4 -10 -10 -10 -34 0 -23 -4 -41 -10
-41 -6 0 -10 -30 -10 -71 0 -40 -4 -68 -9 -65 -5 4 -9 -23 -10 -61 0 -36 -5
-71 -11 -77 -5 -5 -10 -25 -10 -42 0 -18 -4 -36 -10 -39 -5 -3 -10 -24 -10
-47 0 -32 -3 -39 -16 -34 -9 3 -18 6 -20 6 -2 0 -4 9 -4 19 0 11 -4 23 -10 26
-5 3 -10 15 -10 26 0 10 -4 19 -9 19 -20 0 -40 305 -22 323 6 6 11 35 11 65 0
33 4 51 10 47 6 -4 10 8 10 29 0 20 5 36 10 36 6 0 10 11 10 25 0 14 5 25 10
25 6 0 10 9 10 20 0 11 5 20 10 20 6 0 10 11 10 25 0 14 5 25 10 25 6 0 10 7
10 15 0 8 5 15 10 15 6 0 10 11 10 25 0 14 5 25 10 25 6 0 10 7 10 16 0 8 5
12 10 9 6 -3 10 3 10 15 0 11 8 24 18 28 9 4 17 12 18 17 3 23 17 55 25 55 5
0 9 7 9 15 0 9 6 12 18 9 12 -4 13 -3 4 3 -13 10 -6 43 9 43 4 0 6 7 2 16 -5
13 -11 11 -34 -14 -16 -17 -29 -36 -29 -41 0 -6 -4 -11 -10 -11 -5 0 -10 -7
-10 -15 0 -8 -3 -15 -8 -15 -4 0 -13 -13 -20 -28 -7 -16 -24 -35 -39 -43 -28
-14 -53 -32 -78 -56 -8 -7 -21 -13 -29 -13 -9 0 -16 -4 -16 -10 0 -5 -6 -10
-14 -10 -8 0 -16 -5 -18 -10 -2 -6 -17 -13 -33 -16 -16 -3 -32 -8 -35 -12 -3
-4 -18 -13 -35 -21 -16 -7 -38 -17 -47 -22 -24 -12 -68 -11 -68 1 0 6 10 10
21 10 12 0 29 8 38 18 23 25 60 44 72 37 5 -4 9 -3 8 2 -3 13 12 43 22 43 16
0 179 178 179 195 0 6 9 17 20 25 11 8 20 21 20 30 0 9 9 22 20 30 11 8 20 20
20 26 0 6 9 23 20 37 11 14 20 32 20 41 0 9 4 16 10 16 5 0 12 11 16 25 3 14
10 25 16 25 5 0 6 5 3 10 -3 6 1 13 9 16 10 4 16 18 16 35 0 39 -28 38 -42 -2
-6 -19 -15 -28 -24 -25 -8 3 -11 0 -7 -10 7 -18 -14 -62 -39 -85 -10 -9 -18
-24 -18 -33 0 -9 -4 -16 -10 -16 -5 0 -10 -7 -10 -15 0 -8 -4 -15 -10 -15 -5
0 -10 -6 -10 -13 0 -8 -10 -22 -21 -33 l-22 -19 8 30 c4 17 9 76 12 133 3 56
9 102 14 102 5 0 9 11 9 24 0 14 5 28 10 31 6 3 10 19 10 36 0 16 5 29 10 29
6 0 10 7 10 15 0 8 5 15 10 15 6 0 10 7 10 15 0 8 5 15 10 15 6 0 10 7 10 15
0 14 27 59 92 152 13 18 28 33 33 33 13 1 43 62 38 78 -3 6 -9 12 -15 12 -6 0
-8 -7 -5 -14 4 -11 1 -13 -11 -9 -9 3 -14 3 -10 -2 4 -4 2 -13 -5 -19 -7 -7
-25 -30 -42 -50 -16 -21 -38 -48 -48 -59 -10 -12 -25 -36 -34 -54 -8 -18 -19
-33 -24 -33 -5 0 -9 -5 -9 -11 0 -6 -7 -18 -16 -26 -13 -14 -17 -14 -24 -2 -5
7 -13 10 -17 5 -4 -5 -2 -11 5 -13 17 -7 15 -23 -4 -23 -8 0 -12 -4 -9 -10 3
-5 -1 -10 -11 -10 -9 0 -25 -10 -35 -21 -11 -13 -25 -19 -34 -15 -10 3 -14 2
-10 -5 8 -11 -25 -40 -37 -33 -5 3 -8 1 -8 -4 0 -6 -20 -30 -45 -55 -25 -26
-45 -52 -45 -59 0 -8 -9 -21 -20 -31 -19 -16 -20 -16 -20 19 0 21 4 33 10 29
6 -4 10 -3 9 2 -6 36 3 173 11 168 6 -4 10 12 10 40 0 28 4 44 10 40 6 -4 10
5 10 19 0 17 6 26 16 26 9 0 14 8 13 18 -3 32 1 36 16 16 14 -18 15 -17 4 8
-10 23 -8 31 15 61 14 18 26 39 26 45 0 7 5 12 10 12 6 0 10 7 10 15 0 8 4 15
9 15 5 0 12 8 15 18 4 10 31 44 61 75 30 31 55 62 55 68 0 6 7 9 14 6 11 -4
13 -1 9 10 -4 10 -2 14 4 10 5 -3 19 4 30 16 30 33 72 67 83 67 6 0 20 9 32
20 12 11 30 20 40 20 10 0 18 5 18 10 0 6 7 10 15 10 8 0 15 3 15 8 0 4 15 13
33 20 17 7 58 26 89 42 31 17 64 30 72 30 9 0 16 4 16 9 0 5 22 17 50 26 27 9
52 21 55 26 4 5 15 9 26 9 10 0 19 5 19 10 0 6 14 10 31 10 17 0 28 4 24 10
-4 6 5 10 19 10 14 0 26 5 26 10 0 6 9 10 19 10 11 0 23 5 26 10 3 6 15 10 26
10 10 0 19 3 19 8 0 4 15 13 33 20 55 22 98 47 154 88 36 27 41 34 28 44 -11
9 -19 7 -36 -9 -13 -12 -28 -21 -35 -21 -7 0 -14 -4 -16 -8 -1 -4 -57 -34
-123 -66 -66 -32 -128 -62 -137 -67 -10 -5 -25 -9 -33 -9 -8 0 -15 -4 -15 -10
0 -5 -10 -10 -23 -10 -26 0 -77 -21 -77 -32 0 -5 -14 -8 -31 -8 -19 0 -39 -8
-49 -20 -16 -19 -18 -19 -36 -2 -10 10 -27 21 -36 25 -18 6 -24 32 -10 40 4 2
1 2 -6 0 -23 -5 -34 8 -20 25 8 9 8 13 2 9 -7 -4 -14 0 -18 8 -3 8 -2 15 2 15
15 0 62 -25 62 -32 0 -5 7 -8 15 -8 8 0 15 -5 15 -11 0 -18 45 -5 48 14 2 12
-3 17 -19 17 -12 0 -34 12 -48 28 -15 15 -30 27 -34 27 -10 0 -58 37 -84 65
-61 67 -74 86 -70 108 3 14 -1 22 -9 22 -8 0 -14 10 -14 24 0 14 -4 28 -10 31
-5 3 -10 15 -10 26 0 10 5 19 10 19 6 0 10 -8 10 -18 0 -18 57 -75 81 -80 8
-2 15 -8 17 -13 2 -5 15 -9 28 -9 13 0 24 -4 24 -10 0 -5 26 -10 58 -11 41 0
51 -3 37 -9 -13 -6 13 -9 75 -9 62 0 88 3 75 9 -14 6 1 9 48 9 43 1 66 5 62
11 -4 6 13 10 45 10 32 0 49 4 45 10 -4 6 7 10 24 10 17 0 31 5 31 10 0 6 13
10 29 10 17 0 33 5 36 10 3 6 17 10 31 10 13 0 24 5 24 10 0 6 16 10 36 10 21
0 33 4 29 10 -3 6 3 10 15 10 11 0 28 4 38 10 51 28 218 83 231 76 5 -3 11 1
15 9 4 11 22 15 69 15 36 0 68 5 75 12 10 10 17 10 32 0 24 -14 120 -16 120
-2 0 6 -9 10 -21 10 -11 0 -17 5 -14 10 4 6 -35 10 -109 10 -71 0 -116 -4
-116 -10 0 -5 -22 -10 -50 -10 -27 0 -50 -4 -50 -10 0 -13 -74 -13 -98 -1 -9
5 -32 16 -49 23 -18 7 -33 16 -33 20 0 5 -9 8 -20 8 -11 0 -20 3 -20 8 0 4
-12 13 -27 20 -16 7 -41 24 -56 38 -22 19 -26 28 -18 38 9 10 6 12 -11 9 -26
-4 -84 44 -107 90 -8 15 -18 27 -23 27 -4 0 -8 7 -8 16 0 8 -4 12 -10 9 -5 -3
-10 1 -10 10 0 19 -28 50 -37 42 -8 -9 5 -54 21 -69 7 -8 12 -27 10 -43 -2
-21 -1 -26 6 -15 8 13 11 12 24 -5 9 -11 16 -24 16 -28 0 -5 5 -5 10 -2 6 3
10 0 10 -8 0 -8 7 -20 15 -27 20 -16 19 -35 -2 -56 -16 -16 -16 -16 5 -10 16
6 22 3 22 -8 0 -11 -9 -16 -26 -16 -23 0 -26 4 -22 25 4 21 3 23 -13 15 -28
-15 -32 -30 -15 -49 9 -10 13 -21 9 -24 -11 -12 -23 -8 -23 8 0 8 -4 15 -10
15 -14 0 -30 -35 -30 -65 0 -18 -4 -24 -12 -18 -32 19 -65 0 -36 -21 8 -6 18
-21 22 -34 6 -18 4 -22 -13 -22 -12 0 -21 -7 -21 -15 0 -10 -10 -15 -32 -15
-32 -1 -32 -1 -13 -16 11 -9 34 -22 50 -30 30 -13 29 -13 -30 -15 -33 -1 -66
-2 -72 -2 -7 1 -11 -3 -8 -7 5 -9 -69 -20 -131 -20 -24 0 -44 5 -44 10 0 6
-18 10 -41 10 -22 0 -47 6 -54 13 -33 29 -45 37 -45 32 0 -4 -11 7 -25 23 -32
38 -38 95 -10 100 25 5 44 31 45 60 0 12 5 22 10 22 6 0 10 15 10 33 0 24 3
28 10 17 9 -13 10 -13 10 1 0 8 17 28 39 44 42 32 111 124 111 149 0 8 5 18
10 21 6 3 10 15 10 26 0 10 4 19 8 19 4 0 8 9 9 21 2 17 -2 20 -20 15 -12 -3
-26 -6 -31 -6 -5 0 -3 -7 4 -15 10 -12 9 -20 -4 -40 -9 -13 -16 -31 -16 -39 0
-9 -11 -18 -25 -22 -24 -6 -35 -24 -15 -24 12 0 -42 -53 -90 -90 -19 -14 -37
-24 -42 -22 -4 1 -8 -2 -8 -8 0 -5 -6 -10 -12 -10 -20 -1 -58 -36 -58 -54 0
-23 19 -30 39 -12 22 20 31 20 31 0 0 -8 -4 -12 -10 -9 -5 3 -10 0 -10 -8 0
-21 -27 -40 -42 -31 -7 5 -20 8 -28 6 -19 -2 -66 96 -75 156 -7 44 19 152 36
152 5 0 9 9 9 20 0 11 5 20 10 20 6 0 10 4 10 10 0 12 32 50 42 50 4 0 6 -6 5
-12 -2 -7 1 -3 7 9 5 12 22 27 38 34 20 8 28 18 28 36 0 14 -4 21 -10 18 -5
-3 -10 -13 -10 -21 0 -8 -8 -14 -18 -14 -10 0 -27 -7 -38 -15 -10 -8 -27 -15
-36 -15 -16 0 -16 2 0 32 9 18 21 36 26 39 4 4 0 11 -10 17 -18 10 -18 11 -1
17 24 10 21 25 -6 25 -12 0 -28 -9 -35 -20z m1397 -122 c1 -10 -6 -18 -14 -18
-16 0 -19 20 -8 60 l7 25 7 -25 c4 -14 7 -33 8 -42z m461 -58 c0 -5 -6 -10
-13 -10 -7 0 -18 -9 -25 -21 -18 -28 -26 -18 -11 15 12 25 49 37 49 16z m85 0
c-3 -5 -13 -10 -21 -10 -8 0 -14 5 -14 10 0 6 9 10 21 10 11 0 17 -4 14 -10z
m65 -20 c0 -15 -38 -32 -45 -20 -3 5 -3 15 0 20 8 13 45 13 45 0z m-69 -30 c6
0 7 -5 3 -11 -4 -7 -10 -7 -16 -1 -6 6 -17 8 -26 5 -10 -5 -13 -2 -8 6 5 7 15
10 23 7 8 -3 19 -6 24 -6z m-101 -10 c0 -5 -4 -10 -10 -10 -5 0 -10 5 -10 10
0 6 5 10 10 10 6 0 10 -4 10 -10z m50 -22 c0 -5 -9 -8 -21 -8 -11 0 -17 -4
-14 -10 3 -5 1 -10 -4 -10 -16 0 -13 13 6 37 16 20 32 15 33 -9z m-797 5 c-18
-2 -48 -2 -65 0 -18 2 -4 4 32 4 36 0 50 -2 33 -4z m2613 -9 c-3 -9 -6 -22 -6
-30 0 -8 -7 -14 -15 -14 -8 0 -15 5 -15 10 0 6 5 10 10 10 6 0 10 9 10 20 0
11 5 20 11 20 6 0 8 -7 5 -16z m82 -11 c2 -8 -5 -13 -17 -13 -21 0 -35 13 -24
24 10 10 36 3 41 -11z m-2553 -3 c3 -5 1 -10 -4 -10 -6 0 -11 5 -11 10 0 6 2
10 4 10 3 0 8 -4 11 -10z m2372 -46 c-3 -3 -12 -4 -19 -1 -8 3 -5 6 6 6 11 1
17 -2 13 -5z m-73 -39 c-6 -16 -24 -21 -24 -7 0 11 11 22 21 22 5 0 6 -7 3
-15z m116 -15 c0 -11 -4 -20 -10 -20 -5 0 -10 -9 -10 -21 0 -11 -4 -17 -10
-14 -5 3 -10 15 -10 26 0 10 5 19 10 19 6 0 10 7 10 15 0 8 5 15 10 15 6 0 10
-9 10 -20z m-875 -46 c-5 -34 -2 -52 10 -70 9 -14 13 -33 10 -43 -3 -10 1 -24
10 -31 17 -14 21 -50 5 -50 -5 0 -10 9 -10 19 0 11 -5 23 -11 27 -6 3 -8 17
-5 30 5 17 2 24 -9 24 -8 0 -15 4 -15 9 0 5 -7 17 -17 26 -14 14 -14 18 -2 26
12 7 12 9 0 9 -11 0 -9 4 5 15 18 14 18 14 -8 15 -16 0 -28 -4 -28 -10 0 -5
-9 -10 -20 -10 -11 0 -20 3 -20 6 0 13 35 33 58 34 12 0 22 5 22 10 0 6 7 10
16 10 14 0 15 -7 9 -46z m815 39 c0 -5 -5 -15 -10 -23 -8 -12 -10 -11 -10 8 0
12 5 22 10 22 6 0 10 -3 10 -7z m-123 -29 c-3 -3 -12 -4 -19 -1 -8 3 -5 6 6 6
11 1 17 -2 13 -5z m203 -13 c0 -6 -4 -13 -10 -16 -5 -3 -10 1 -10 9 0 9 5 16
10 16 6 0 10 -4 10 -9z m-2874 -31 c9 0 12 -4 9 -10 -4 -6 -13 -5 -25 2 -10 7
-16 17 -13 22 4 6 8 5 11 -2 2 -7 10 -12 18 -12z m844 16 c0 -11 -19 -15 -25
-6 -3 5 1 10 9 10 9 0 16 -2 16 -4z m1043 -7 c29 -16 28 -14 21 -33 -3 -9 -11
-13 -16 -9 -31 19 -98 -6 -98 -37 0 -6 -10 -15 -22 -19 -20 -8 -21 -10 -6 -16
17 -7 58 22 48 34 -9 11 49 12 67 2 16 -9 16 -10 -4 -11 -13 0 -23 -4 -23 -8
0 -4 -20 -14 -45 -21 -47 -14 -56 -25 -29 -35 27 -10 64 -7 62 6 -2 7 7 14 20
16 12 2 22 -1 22 -5 0 -17 -24 -33 -51 -33 -19 0 -26 -5 -25 -16 0 -9 -4 -19
-10 -21 -7 -2 -11 4 -10 14 0 11 -7 19 -20 21 -29 4 -40 -27 -17 -43 42 -29
67 -54 56 -55 -7 0 -13 5 -13 10 0 6 -3 9 -7 8 -13 -3 -63 24 -63 34 0 4 -9 8
-20 8 -11 0 -28 4 -38 9 -9 5 -33 15 -52 24 l-35 15 25 10 c14 5 32 17 39 26
7 9 23 16 34 16 11 0 18 3 14 6 -10 11 20 34 45 34 18 0 20 2 8 10 -12 8 -10
10 8 10 13 0 20 4 17 10 -3 6 1 10 9 10 9 0 16 3 16 8 0 8 38 29 58 31 7 0 23
-4 35 -10z m-1007 -10 c3 -6 1 -16 -5 -22 -8 -8 -11 -8 -11 2 0 7 -4 9 -10 6
-11 -7 -14 8 -3 18 9 10 21 8 29 -4z m1984 -18 c0 -10 -7 -21 -15 -25 -11 -4
-15 1 -15 19 0 16 6 25 15 25 8 0 15 -9 15 -19z m-2836 -22 c-3 -5 -10 -7 -15
-3 -5 3 -7 10 -3 15 3 5 10 7 15 3 5 -3 7 -10 3 -15z m-849 -65 c7 -8 21 -14
30 -14 9 0 15 -6 12 -12 -2 -8 -19 -12 -43 -11 -25 1 -42 -4 -50 -15 -14 -20
-19 -16 -27 19 -6 24 -4 26 18 21 28 -5 33 9 10 32 -17 16 -21 41 -5 31 6 -3
10 2 11 12 0 11 6 5 15 -16 8 -18 21 -40 29 -47z m3305 61 c0 -9 -10 -15 -26
-15 -14 0 -23 4 -19 10 4 6 10 8 15 5 5 -3 11 -1 15 5 9 14 15 12 15 -5z
m-2635 -25 c3 -5 -1 -10 -10 -10 -9 0 -13 5 -10 10 3 6 8 10 10 10 2 0 7 -4
10 -10z m223 -7 c-6 -7 -12 -13 -13 -13 -2 0 -5 6 -8 13 -3 7 3 13 14 13 13 0
15 -3 7 -13z m1844 -28 c-2 -14 -9 -25 -14 -25 -6 0 -7 7 -4 16 3 9 6 20 6 25
0 5 4 9 9 9 4 0 6 -11 3 -25z m35 3 c-3 -8 -6 -5 -6 6 -1 11 2 17 5 13 3 -3 4
-12 1 -19z m428 12 c3 -5 2 -10 -4 -10 -5 0 -13 5 -16 10 -3 6 -2 10 4 10 5 0
13 -4 16 -10z m402 -12 c-3 -8 -6 -5 -6 6 -1 11 2 17 5 13 3 -3 4 -12 1 -19z
m-2594 -12 c22 -17 22 -26 -3 -26 -11 0 -20 5 -20 10 0 6 -7 10 -16 10 -8 0
-12 5 -9 10 8 14 26 12 48 -4z m2192 -16 c-3 -5 -12 -10 -18 -10 -7 0 -6 4 3
10 19 12 23 12 15 0z m488 -30 c18 0 49 -39 41 -52 -5 -8 -2 -9 9 -5 18 7 47
-1 47 -12 0 -4 -20 -7 -45 -7 -45 -1 -80 -19 -69 -35 3 -5 -6 -20 -20 -34 -28
-28 -31 -36 -16 -51 15 -15 -4 -69 -23 -68 -9 1 -19 -7 -22 -17 -8 -25 -49
-69 -64 -69 -6 0 -11 -7 -11 -16 0 -8 -7 -22 -15 -30 -13 -14 -15 -14 -15 1 0
15 -1 15 -16 1 -9 -9 -13 -24 -9 -35 3 -11 1 -22 -5 -26 -5 -3 -10 -1 -10 4 0
6 -9 11 -20 11 -11 0 -20 -5 -20 -11 0 -5 5 -7 10 -4 6 4 10 -8 10 -29 0 -20
-4 -36 -10 -36 -5 0 -10 7 -10 15 0 8 -4 15 -10 15 -5 0 -10 -9 -10 -20 0 -25
-17 -26 -23 -2 -3 9 -5 3 -6 -15 -1 -22 -5 -31 -14 -27 -7 2 -22 -4 -32 -16
-10 -11 -23 -20 -30 -20 -18 0 -62 -50 -44 -50 8 -1 1 -8 -16 -17 -16 -8 -38
-22 -47 -30 -35 -30 -52 11 -18 42 11 10 20 25 20 33 0 8 14 31 30 52 32 40
38 65 18 73 -7 3 -3 6 10 6 13 1 30 7 38 15 12 13 12 15 -4 19 -11 3 -7 5 10
6 21 1 25 5 21 21 -3 11 -10 17 -15 14 -6 -4 -5 3 1 15 11 19 23 25 44 22 4
-1 10 7 13 16 12 38 39 93 46 93 4 0 5 -14 1 -32 -4 -22 -3 -29 5 -24 7 4 12
27 12 52 0 24 4 44 9 44 6 0 8 -15 7 -32 -2 -18 -1 -25 1 -15 2 9 9 15 14 12
9 -6 13 12 9 53 -1 14 4 22 14 22 9 0 16 5 16 11 0 5 -4 7 -10 4 -5 -3 -10 -2
-10 4 0 5 4 12 9 15 13 9 23 -26 11 -38 -17 -17 -11 -27 9 -14 11 7 18 15 15
19 -2 4 3 14 11 21 9 7 45 41 81 76 36 34 70 62 76 62 7 0 7 4 -1 14 -6 8 -8
21 -4 32 7 17 8 17 11 -3 2 -13 9 -23 15 -23z m-2708 10 c3 -5 -3 -10 -14 -10
-12 0 -21 5 -21 10 0 6 6 10 14 10 8 0 18 -4 21 -10z m-967 -28 c2 -7 -3 -12
-12 -12 -9 0 -16 7 -16 16 0 17 22 14 28 -4z m3597 -11 c3 -5 1 -12 -4 -15 -5
-3 -11 1 -15 9 -6 16 9 21 19 6z m-3675 -11 c0 -5 -5 -10 -11 -10 -5 0 -7 5
-4 10 3 6 8 10 11 10 2 0 4 -4 4 -10z m100 -27 c0 -36 20 -84 69 -165 13 -21
27 -38 32 -38 5 0 9 -5 9 -10 0 -6 9 -20 20 -32 21 -22 28 -54 10 -43 -5 3
-10 1 -10 -4 0 -6 5 -11 10 -11 6 0 10 -9 10 -21 0 -39 40 -94 80 -111 23 -10
23 -12 5 -16 -11 -2 -24 -8 -30 -13 -5 -5 -17 -9 -26 -9 -9 0 -20 -7 -23 -16
-3 -8 -10 -12 -16 -9 -5 3 -10 3 -10 -2 0 -13 -54 -35 -58 -23 -6 17 -22 11
-22 -8 0 -12 -15 -25 -40 -36 -22 -10 -40 -22 -40 -27 0 -6 -4 -7 -10 -4 -5 3
-10 1 -10 -4 0 -6 -7 -11 -15 -11 -8 0 -15 -3 -15 -7 0 -14 -47 -63 -54 -56
-3 3 -6 1 -6 -5 0 -7 -4 -12 -10 -12 -5 0 -10 7 -10 15 0 8 4 15 9 15 5 0 11
7 14 14 4 10 1 13 -9 9 -9 -3 -14 1 -14 12 0 12 5 15 20 10 11 -4 20 -2 20 4
0 12 -14 14 -47 5 -22 -6 -33 -34 -13 -34 6 0 10 -4 10 -10 0 -15 -26 -12 -39
4 -15 18 5 57 25 49 9 -3 11 12 10 54 -1 54 -3 58 -23 56 -25 -3 -29 7 -11 25
17 17 28 15 28 -4 0 -8 5 -12 10 -9 6 3 10 0 10 -8 0 -27 33 -30 52 -5 22 28
22 32 3 48 -13 11 -15 8 -15 -14 0 -16 -5 -26 -15 -26 -8 0 -15 6 -15 14 0 8
-4 16 -9 18 -5 2 -12 18 -16 37 -4 21 -4 31 3 27 5 -3 12 8 16 25 9 48 7 109
-4 109 -5 0 -10 -6 -11 -12 0 -10 -2 -10 -6 0 -7 17 -42 15 -49 -3 -4 -8 -13
-15 -20 -15 -8 0 -17 7 -20 15 -4 8 -12 15 -20 15 -17 0 -17 5 -2 47 7 18 18
33 25 33 7 0 22 5 33 10 11 6 30 15 41 21 29 15 40 1 47 -60 4 -29 9 -51 12
-50 3 1 15 -3 27 -9 14 -8 24 -9 28 -2 3 5 -3 10 -14 10 -23 0 -35 15 -25 31
4 8 9 7 15 -2 9 -15 8 -17 15 41 6 59 20 85 46 88 21 3 24 7 20 28 -3 15 -11
24 -23 24 -11 0 -23 10 -28 23 -11 28 -6 36 18 30 11 -3 21 2 24 11 11 29 27
16 27 -21z m2640 8 c0 -17 -15 -19 -35 -5 -18 13 -18 14 8 14 15 0 27 -4 27
-9z m-2745 -11 c3 -5 1 -10 -4 -10 -6 0 -11 5 -11 10 0 6 2 10 4 10 3 0 8 -4
11 -10z m670 -10 c-11 -5 -27 -9 -35 -9 -9 0 -8 4 5 9 11 5 27 9 35 9 9 0 8
-4 -5 -9z m2950 -10 l20 -9 -20 -1 c-11 -2 -23 -2 -27 -1 -5 0 -8 -4 -8 -11 0
-6 -2 -9 -5 -6 -7 6 5 38 14 37 3 0 15 -4 26 -9z m-885 -30 c0 -5 -4 -10 -10
-10 -5 0 -10 5 -10 10 0 6 5 10 10 10 6 0 10 -4 10 -10z m380 6 c0 -11 -19
-15 -25 -6 -3 5 1 10 9 10 9 0 16 -2 16 -4z m-3114 -43 c-10 -10 -19 5 -10 18
6 11 8 11 12 0 2 -7 1 -15 -2 -18z m3799 17 c-3 -5 -10 -10 -16 -10 -5 0 -9 5
-9 10 0 6 7 10 16 10 8 0 12 -4 9 -10z m-1009 -35 c14 -14 21 -25 17 -25 -10
1 -53 36 -53 44 0 12 11 6 36 -19z m960 10 c-4 -24 -16 -30 -16 -7 0 12 4 22
9 22 5 0 8 -7 7 -15z m-895 -78 c-10 -9 -11 -8 -5 6 3 10 9 15 12 12 3 -3 0
-11 -7 -18z m-586 -23 c33 -3 64 -10 70 -15 5 -5 19 -9 31 -9 12 0 34 -7 50
-14 15 -8 31 -13 36 -10 4 3 8 2 8 -3 0 -4 18 -17 40 -27 22 -11 40 -23 40
-28 0 -4 9 -8 20 -8 11 0 20 -4 20 -8 0 -5 12 -14 26 -20 14 -7 22 -17 19 -22
-3 -6 1 -10 10 -10 25 0 101 -86 168 -190 19 -31 42 -62 51 -69 9 -7 16 -26
16 -42 0 -16 5 -29 10 -29 6 0 10 -9 10 -20 0 -11 -4 -20 -10 -20 -5 0 -10 -7
-10 -15 0 -8 5 -15 10 -15 6 0 10 -9 10 -20 0 -11 3 -19 8 -19 20 3 32 -3 32
-17 0 -18 23 -44 40 -44 6 0 8 -4 5 -10 -3 -5 3 -10 14 -10 12 0 21 -4 21 -10
0 -5 7 -10 15 -10 8 0 15 -4 15 -10 0 -5 9 -10 20 -10 11 0 20 -4 20 -10 0 -5
9 -10 20 -10 11 0 20 -4 20 -10 0 -5 7 -10 15 -10 9 0 22 -6 31 -12 52 -45 74
-67 74 -77 0 -6 4 -11 8 -11 4 0 16 -13 25 -30 10 -16 15 -30 12 -30 -4 0 1
-7 9 -16 9 -8 16 -29 16 -45 0 -17 4 -28 8 -25 9 5 7 -65 -3 -149 -8 -66 -41
-189 -60 -228 -8 -16 -15 -36 -15 -44 0 -7 -4 -13 -10 -13 -5 0 -10 -8 -10
-18 0 -10 -9 -28 -20 -40 -11 -12 -20 -28 -20 -37 0 -8 -4 -15 -10 -15 -5 0
-10 -7 -10 -15 0 -8 -4 -15 -10 -15 -5 0 -10 -7 -10 -15 0 -8 -4 -15 -10 -15
-5 0 -10 -7 -10 -15 0 -8 -4 -15 -10 -15 -5 0 -10 -5 -10 -11 0 -6 -6 -16 -12
-23 -7 -7 -26 -31 -43 -52 -39 -49 -140 -150 -189 -189 -21 -16 -44 -34 -50
-40 -18 -16 -69 -46 -88 -52 -10 -3 -18 -9 -18 -14 0 -5 -9 -9 -20 -9 -11 0
-20 -4 -20 -10 0 -5 -9 -10 -20 -10 -11 0 -20 -4 -20 -10 0 -5 -11 -10 -25
-10 -14 0 -25 -4 -25 -8 0 -4 -21 -13 -47 -21 -27 -7 -57 -16 -68 -21 -92 -37
-193 -53 -365 -57 -118 -3 -171 0 -225 12 -98 22 -148 37 -160 47 -5 4 -17 8
-27 8 -10 0 -18 5 -18 10 0 6 -9 10 -20 10 -11 0 -20 5 -20 10 0 6 -9 10 -21
10 -11 0 -17 5 -14 10 3 5 1 10 -5 10 -6 0 -26 15 -44 33 l-33 34 -7 154 c-6
147 -13 225 -35 404 -5 44 -10 199 -10 343 -1 303 -1 302 86 390 29 28 55 52
58 52 3 0 5 -31 5 -70 0 -40 -4 -70 -10 -70 -5 0 -10 -7 -10 -15 0 -8 -4 -15
-10 -15 -5 0 -10 -9 -10 -20 0 -11 -4 -20 -10 -20 -5 0 -10 -11 -10 -25 0 -14
5 -25 10 -25 6 0 10 7 10 15 0 8 5 15 10 15 6 0 10 9 10 21 0 18 27 57 33 48
2 -2 9 -17 16 -34 50 -114 95 -175 130 -175 20 0 30 25 12 32 -9 3 1 166 15
238 9 49 21 60 65 60 50 0 50 13 -1 30 -34 11 -40 17 -40 42 0 15 5 28 10 28
6 0 10 16 10 35 0 19 5 35 10 35 6 0 10 11 10 24 0 14 5 28 10 31 6 3 10 15
10 26 0 10 5 19 10 19 6 0 10 11 10 25 0 14 5 25 10 25 6 0 10 9 10 20 0 11 5
20 10 20 6 0 10 8 10 18 0 9 9 28 20 42 11 14 20 33 20 43 0 9 3 17 8 17 4 0
21 30 37 65 17 36 33 65 38 65 4 0 7 12 7 28 1 53 32 74 100 67 25 -3 72 -8
105 -11z m-2445 -104 c0 -16 -4 -30 -10 -30 -5 0 -10 14 -10 30 0 17 5 30 10
30 6 0 10 -13 10 -30z m3104 -15 c-4 -8 -8 -15 -10 -15 -2 0 -4 7 -4 15 0 8 4
15 10 15 5 0 7 -7 4 -15z m423 -41 c-3 -3 -12 -4 -19 -1 -8 3 -5 6 6 6 11 1
17 -2 13 -5z m-457 -248 c0 -3 -4 -8 -10 -11 -5 -3 -10 -1 -10 4 0 6 5 11 10
11 6 0 10 -2 10 -4z m-3025 -26 c-3 -5 -15 -10 -26 -10 -10 0 -19 5 -19 10 0
6 12 10 26 10 14 0 23 -4 19 -10z m3045 -20 c0 -5 -4 -10 -10 -10 -5 0 -10 5
-10 10 0 6 5 10 10 10 6 0 10 -4 10 -10z m-3050 -8 c0 -4 -9 -13 -20 -20 -22
-14 -26 -42 -8 -60 6 -6 9 -14 6 -18 -11 -10 -49 36 -41 49 22 36 63 68 63 49z
m3070 -48 c0 -8 -4 -12 -10 -9 -5 3 -10 13 -10 21 0 8 5 12 10 9 6 -3 10 -13
10 -21z m-3070 6 c0 -5 -4 -10 -10 -10 -5 0 -10 5 -10 10 0 6 5 10 10 10 6 0
10 -4 10 -10z m70 -10 c0 -5 -7 -10 -15 -10 -8 0 -15 -4 -15 -8 0 -13 -80 -95
-87 -89 -3 3 9 20 26 36 18 17 29 36 25 42 -3 6 3 13 15 16 12 3 21 9 21 14 0
5 7 9 15 9 8 0 15 -4 15 -10z m3570 -30 c0 -5 -4 -10 -10 -10 -5 0 -10 5 -10
10 0 6 5 10 10 10 6 0 10 -4 10 -10z m-3910 -65 c0 -17 -4 -23 -15 -19 -11 5
-12 11 -4 25 13 26 19 24 19 -6z m77 -11 c-3 -3 -12 -4 -19 -1 -8 3 -5 6 6 6
11 1 17 -2 13 -5z m83 -13 c0 -10 -9 -21 -20 -24 -23 -6 -24 -3 -10 24 14 24
30 25 30 0z m3243 12 c-7 -2 -21 -2 -30 0 -10 3 -4 5 12 5 17 0 24 -2 18 -5z
m97 3 c0 -3 -4 -8 -10 -11 -5 -3 -10 -1 -10 4 0 6 5 11 10 11 6 0 10 -2 10 -4z
m-3280 -26 c0 -5 -4 -10 -10 -10 -5 0 -10 5 -10 10 0 6 5 10 10 10 6 0 10 -4
10 -10z m3212 3 c-17 -7 15 -32 41 -33 25 0 11 -20 -14 -20 -11 0 -18 4 -14 9
3 5 -3 12 -14 16 -29 9 -35 35 -8 34 12 0 16 -3 9 -6z m-3239 -18 c4 -8 2 -17
-3 -20 -6 -4 -10 3 -10 14 0 25 6 27 13 6z m3352 -34 c10 -6 16 -7 34 -10 6 0
8 -11 6 -22 -5 -27 -15 -38 -15 -16 0 18 -36 47 -58 47 -12 0 -12 -3 -2 -15 7
-9 10 -18 6 -22 -3 -3 -6 -1 -6 5 0 7 -7 12 -15 12 -18 0 -19 7 -3 24 12 12
28 12 53 -3z m-3382 -11 c-3 -11 -9 -23 -14 -26 -10 -6 -12 29 -2 39 13 13 21
7 16 -13z m-63 5 c0 -3 -9 -15 -20 -27 l-20 -22 0 27 c0 20 5 27 20 27 11 0
20 -2 20 -5z m3596 -35 c8 0 14 -4 14 -10 0 -5 -4 -10 -10 -10 -5 0 -10 -8
-10 -17 -1 -16 -2 -16 -15 1 -17 23 -19 9 -5 -28 5 -14 16 -26 24 -26 7 0 16
-7 20 -15 11 -29 -34 -16 -52 14 -9 17 -24 32 -33 34 -10 3 -22 15 -29 27 -11
21 -10 22 19 15 27 -6 32 -3 43 22 9 22 12 24 15 11 3 -10 11 -18 19 -18z
m-3564 -38 c-7 -2 -12 -17 -12 -33 0 -31 -14 -39 -24 -13 -9 23 21 67 39 56 5
-3 4 -7 -3 -10z m4105 -64 c-2 -13 -4 -3 -4 22 0 25 2 35 4 23 2 -13 2 -33 0
-45z m-187 -98 c0 -5 -4 -10 -9 -10 -5 0 -13 -9 -16 -20 -3 -11 -11 -20 -16
-20 -6 0 -2 14 8 30 17 30 33 39 33 20z m66 -39 c-10 -11 -15 -25 -10 -32 5
-9 1 -11 -14 -7 -12 4 -20 2 -16 -3 3 -5 -11 -9 -31 -9 -24 0 -34 4 -29 11 3
6 15 9 25 6 11 -3 19 -2 19 2 0 17 56 69 64 61 6 -6 3 -17 -8 -29z m-3785 -73
c-39 -48 -62 -70 -68 -64 -7 7 55 76 69 76 5 0 4 -6 -1 -12z m3679 2 c0 -6 -7
-13 -15 -16 -8 -4 -15 -10 -15 -16 0 -15 -30 -41 -38 -33 -4 4 -1 10 6 12 6 3
12 12 12 22 0 9 5 22 12 29 15 15 38 16 38 2z m60 -39 c0 -4 -13 -6 -30 -3
-16 2 -30 7 -30 11 0 4 14 6 30 3 17 -2 30 -7 30 -11z m-3820 -40 c0 -6 -4
-13 -10 -16 -5 -3 -10 1 -10 9 0 9 5 16 10 16 6 0 10 -4 10 -9z m3685 -20 c6
-11 -29 -34 -38 -25 -6 7 14 33 25 34 4 0 9 -4 13 -9z m-60 -21 c4 -6 3 -10
-2 -9 -20 3 -34 -2 -28 -11 3 -5 -3 -10 -14 -10 -12 0 -21 -4 -21 -10 0 -5 11
-10 24 -10 13 0 26 -6 29 -12 3 -10 7 -10 20 1 19 15 23 1 5 -17 -9 -9 -7 -12
10 -12 12 0 22 -4 22 -10 0 -5 -3 -10 -6 -10 -10 0 -49 23 -55 32 -3 5 -28 15
-55 23 -42 11 -46 14 -26 20 12 4 22 12 22 17 0 5 4 7 9 4 4 -3 17 1 27 9 23
17 31 18 39 5z m-3695 -16 c0 -8 -5 -12 -10 -9 -6 4 -8 11 -5 16 9 14 15 11
15 -7z m87 -26 c-3 -7 -5 -2 -5 12 0 14 2 19 5 13 2 -7 2 -19 0 -25z m-232
-34 c-2 -38 -6 -49 -26 -59 -17 -9 -28 -10 -36 -3 -9 7 -13 7 -13 -1 0 -6 -7
-11 -15 -11 -8 0 -15 -4 -15 -10 0 -5 7 -10 15 -10 8 0 15 -5 15 -10 0 -6 -7
-13 -15 -16 -8 -4 -15 -14 -15 -24 0 -11 -5 -22 -11 -26 -9 -5 -10 4 -5 31 5
25 4 40 -4 45 -9 6 -7 15 5 34 15 22 24 26 56 24 49 -2 60 9 32 32 -28 23 -29
34 -3 27 13 -3 20 0 20 9 0 8 4 14 8 14 5 0 8 -21 7 -46z m125 36 c0 -5 -2
-10 -4 -10 -3 0 -8 5 -11 10 -3 6 -1 10 4 10 6 0 11 -4 11 -10z m3870 -20 c0
-5 -4 -10 -10 -10 -5 0 -10 5 -10 10 0 6 5 10 10 10 6 0 10 -4 10 -10z m-4065
-21 c-4 -6 -10 -8 -13 -5 -3 4 -16 -1 -28 -9 -14 -9 -25 -11 -29 -5 -3 6 -15
10 -26 10 -10 0 -19 5 -19 10 0 6 27 10 61 10 40 0 58 -4 54 -11z m3805 1 c0
-5 -7 -10 -16 -10 -8 0 -12 5 -9 10 3 6 10 10 16 10 5 0 9 -4 9 -10z m200 -10
c8 -5 11 -12 8 -16 -4 -3 -14 1 -23 10 -18 17 -9 21 15 6z m-3694 -48 c-11
-10 -15 4 -8 28 l7 25 3 -23 c2 -13 1 -26 -2 -30z m-401 18 c18 -20 17 -20
-18 -21 -21 -1 -41 -2 -47 -3 -5 -1 -10 4 -10 9 0 6 4 10 9 10 6 0 16 6 23 13
16 16 22 15 43 -8z m3876 -37 c-9 -16 -10 -16 -11 -1 0 9 3 25 7 35 7 16 8 17
11 1 2 -10 -1 -25 -7 -35z m64 37 c3 -5 1 -10 -4 -10 -6 0 -11 5 -11 10 0 6 2
10 4 10 3 0 8 -4 11 -10z m35 -9 c0 -5 7 -17 16 -25 12 -13 13 -16 1 -16 -7 0
-19 11 -25 25 -7 15 -8 25 -2 25 6 0 10 -4 10 -9z m108 -27 c2 -16 15 -44 28
-61 14 -18 21 -33 16 -33 -5 0 -13 -15 -17 -32 -8 -32 -8 -32 -14 17 -3 28
-16 69 -28 92 -21 40 -21 57 1 50 6 -2 12 -17 14 -33z m-3854 -6 c-3 -4 -9 -8
-15 -8 -5 0 -9 4 -9 8 0 5 7 9 15 9 8 0 12 -4 9 -9z m-214 -32 c0 -15 -7 -27
-19 -31 -13 -4 -17 -12 -14 -25 3 -11 0 -26 -6 -34 -9 -10 -8 -15 4 -20 10 -4
15 1 15 14 0 11 5 20 10 20 16 0 11 -37 -6 -44 -8 -3 -13 -10 -10 -15 4 -5 -6
-14 -21 -19 -16 -6 -22 -11 -15 -11 15 -1 6 -21 -9 -21 -16 0 -10 32 9 46 14
10 15 15 5 25 -16 16 -17 55 -3 64 6 4 7 11 4 17 -4 7 -2 8 5 4 8 -5 16 3 24
23 14 37 27 40 27 7z m150 -6 c0 -5 -4 -10 -10 -10 -5 0 -10 5 -10 10 0 6 5
10 10 10 6 0 10 -4 10 -10z m3687 -22 c-3 -7 -5 -2 -5 12 0 14 2 19 5 13 2 -7
2 -19 0 -25z m-20 -35 c-3 -10 -5 -4 -5 12 0 17 2 24 5 18 2 -7 2 -21 0 -30z
m-3708 6 c-16 -10 -23 -4 -14 10 3 6 11 8 17 5 6 -4 5 -9 -3 -15z m3921 11 c0
-5 -5 -10 -11 -10 -5 0 -7 5 -4 10 3 6 8 10 11 10 2 0 4 -4 4 -10z m-4140 -30
c0 -5 -5 -10 -11 -10 -5 0 -7 5 -4 10 3 6 8 10 11 10 2 0 4 -4 4 -10z m-3 -72
c-3 -8 -6 -5 -6 6 -1 11 2 17 5 13 3 -3 4 -12 1 -19z m152 -19 c-20 -12 -22
-4 -8 23 12 21 13 21 17 4 2 -10 -2 -22 -9 -27z m305 17 c-3 -9 -10 -16 -15
-16 -6 0 -5 9 1 21 13 24 24 20 14 -5z m3416 -26 c0 -5 -2 -10 -4 -10 -3 0 -8
5 -11 10 -3 6 -1 10 4 10 6 0 11 -4 11 -10z m257 -32 c-3 -8 -6 -5 -6 6 -1 11
2 17 5 13 3 -3 4 -12 1 -19z m89 0 c-3 -13 -6 -35 -6 -50 0 -16 -4 -28 -10
-28 -11 0 -14 83 -3 93 14 15 25 6 19 -15z m-366 8 c0 -3 -4 -8 -10 -11 -5 -3
-10 -1 -10 4 0 6 5 11 10 11 6 0 10 -2 10 -4z m-3780 -56 c0 -5 -4 -10 -10
-10 -5 0 -10 5 -10 10 0 6 5 10 10 10 6 0 10 -4 10 -10z m3780 -1 c0 -9 -31
-21 -37 -15 -3 3 -3 9 1 14 6 10 36 12 36 1z m283 -24 c-3 -9 -8 -14 -10 -11
-3 3 -2 9 2 15 9 16 15 13 8 -4z m-323 -19 c0 -3 -4 -8 -10 -11 -5 -3 -10 -1
-10 4 0 6 5 11 10 11 6 0 10 -2 10 -4z m-3260 -20 c0 -3 -4 -8 -10 -11 -5 -3
-10 -1 -10 4 0 6 5 11 10 11 6 0 10 -2 10 -4z m3230 -6 c0 -5 -5 -10 -11 -10
-5 0 -7 5 -4 10 3 6 8 10 11 10 2 0 4 -4 4 -10z m70 -10 c0 -5 -4 -10 -10 -10
-5 0 -10 5 -10 10 0 6 5 10 10 10 6 0 10 -4 10 -10z m327 -12 c-3 -8 -6 -5 -6
6 -1 11 2 17 5 13 3 -3 4 -12 1 -19z m-3647 -14 c0 -8 -4 -14 -10 -14 -5 0
-10 9 -10 21 0 11 5 17 10 14 6 -3 10 -13 10 -21z m3205 -28 c-10 -14 -22 -23
-27 -20 -6 4 -5 10 3 15 8 5 10 9 5 9 -6 0 -1 6 10 14 26 19 29 13 9 -18z
m425 2 c0 -16 -3 -19 -11 -11 -6 6 -8 16 -5 22 11 17 16 13 16 -11z m-4010 2
c0 -5 -4 -10 -9 -10 -6 0 -13 5 -16 10 -3 6 1 10 9 10 9 0 16 -4 16 -10z
m4042 -22 c-7 -7 -12 -8 -12 -2 0 14 12 26 19 19 2 -3 -1 -11 -7 -17z m-3777
2 c-3 -5 -11 -10 -16 -10 -6 0 -7 5 -4 10 3 6 11 10 16 10 6 0 7 -4 4 -10z
m3646 1 c-7 -5 -10 -14 -7 -20 4 -6 2 -11 -3 -11 -12 0 -15 23 -4 33 3 4 11 7
17 7 6 0 5 -4 -3 -9z m-81 -21 c0 -5 -4 -10 -10 -10 -5 0 -10 5 -10 10 0 6 5
10 10 10 6 0 10 -4 10 -10z m177 -22 c-3 -7 -5 -2 -5 12 0 14 2 19 5 13 2 -7
2 -19 0 -25z m-3770 16 c-3 -3 -12 -4 -19 -1 -8 3 -5 6 6 6 11 1 17 -2 13 -5z
m3753 -15 c0 -5 -4 -9 -8 -9 -5 0 -9 7 -9 15 0 8 4 12 9 9 4 -3 8 -9 8 -15z
m-430 0 c0 -5 -9 -9 -20 -9 -11 0 -20 4 -20 8 0 4 9 8 20 9 11 1 20 -2 20 -8z
m510 1 c0 -5 -5 -10 -11 -10 -5 0 -7 5 -4 10 3 6 8 10 11 10 2 0 4 -4 4 -10z
m-200 -20 c0 -5 -4 -10 -10 -10 -5 0 -10 5 -10 10 0 6 5 10 10 10 6 0 10 -4
10 -10z m82 1 c2 -5 10 -11 18 -13 24 -5 52 -67 46 -102 -3 -17 -1 -38 4 -46
7 -11 10 0 10 38 0 48 2 52 23 52 13 0 28 -5 35 -12 16 -16 16 -118 0 -118 -6
0 -9 -3 -5 -6 7 -8 -17 -34 -31 -34 -6 0 -13 -14 -17 -31 -4 -16 -24 -49 -46
-71 -21 -23 -39 -47 -39 -54 0 -7 -6 -14 -12 -17 -10 -3 -10 -11 -1 -38 11
-27 10 -36 -1 -47 -9 -10 -16 -11 -20 -3 -4 6 -1 11 7 11 10 0 13 7 10 20 -7
26 -10 25 -43 -10 -15 -16 -36 -30 -47 -30 -10 0 -25 -9 -33 -20 -12 -16 -26
-20 -72 -20 -32 0 -58 4 -58 10 0 6 -8 10 -18 10 -10 0 -23 5 -30 12 -12 12
-17 78 -6 78 10 0 68 -34 75 -44 4 -5 15 -5 25 -1 17 8 17 9 -3 12 -13 3 -23
9 -23 14 0 5 -7 9 -16 9 -9 0 -18 9 -21 20 -3 11 -9 20 -14 20 -12 0 -11 67 1
75 6 3 10 34 10 68 0 34 4 67 8 72 4 6 29 21 57 35 27 14 81 57 120 97 65 67
98 87 107 64z m78 -1 c0 -5 -5 -10 -11 -10 -5 0 -7 5 -4 10 3 6 8 10 11 10 2
0 4 -4 4 -10z m-553 -43 c-14 -32 -26 -35 -24 -7 1 11 7 20 14 20 7 0 13 5 13
12 0 6 2 9 5 6 3 -2 -1 -16 -8 -31z m333 -7 c0 -5 -4 -10 -9 -10 -6 0 -13 5
-16 10 -3 6 1 10 9 10 9 0 16 -4 16 -10z m-30 -30 c0 -5 -8 -10 -17 -10 -15 0
-16 2 -3 10 19 12 20 12 20 0z m-3495 -29 c-3 -6 -14 -11 -23 -11 -13 0 -13 2
4 14 21 15 30 14 19 -3z m3112 -2 c-9 -6 -15 -14 -12 -19 3 -5 1 -11 -5 -15
-5 -3 -10 -1 -10 6 0 16 31 51 39 43 3 -3 -2 -10 -12 -15z m350 5 c-3 -3 -12
-4 -19 -1 -8 3 -5 6 6 6 11 1 17 -2 13 -5z m-40 -12 c9 -6 7 -11 -7 -20 -17
-11 -20 -10 -20 8 0 21 7 25 27 12z m-277 -12 c0 -5 -2 -10 -4 -10 -3 0 -8 5
-11 10 -3 6 -1 10 4 10 6 0 11 -4 11 -10z m-3190 -14 c0 -3 -4 -8 -10 -11 -5
-3 -10 -1 -10 4 0 6 5 11 10 11 6 0 10 -2 10 -4z m3400 -6 c0 -5 -4 -10 -10
-10 -5 0 -10 5 -10 10 0 6 5 10 10 10 6 0 10 -4 10 -10z m-310 -35 c0 -8 -4
-15 -10 -15 -5 0 -10 7 -10 15 0 8 5 15 10 15 6 0 10 -7 10 -15z m100 5 c0 -5
-4 -10 -10 -10 -5 0 -10 5 -10 10 0 6 5 10 10 10 6 0 10 -4 10 -10z m210 0 c0
-5 -4 -10 -10 -10 -5 0 -10 5 -10 10 0 6 5 10 10 10 6 0 10 -4 10 -10z m-360
-30 c-8 -5 -17 -7 -19 -4 -3 3 1 9 9 14 8 5 17 7 19 4 3 -3 -1 -9 -9 -14z
m-3110 -11 c0 -6 -8 -18 -17 -27 -16 -16 -16 -16 -10 1 4 10 7 25 7 33 0 9 5
12 10 9 6 -3 10 -11 10 -16z m94 -3 c-7 -18 -20 -21 -29 -6 -3 6 1 10 9 10 9
0 16 5 16 12 0 6 2 9 5 6 3 -3 3 -13 -1 -22z m3351 14 c-3 -5 -10 -10 -16 -10
-5 0 -9 5 -9 10 0 6 7 10 16 10 8 0 12 -4 9 -10z m-1615 -40 c0 -5 -2 -10 -4
-10 -3 0 -8 5 -11 10 -3 6 -1 10 4 10 6 0 11 -4 11 -10z m-1776 -15 c-4 -8
-13 -15 -20 -15 -12 0 -12 3 -2 15 17 19 29 19 22 0z m2939 0 c-3 -9 -8 -14
-10 -11 -3 3 -2 9 2 15 9 16 15 13 8 -4z m-23 -4 c0 -10 -28 -41 -36 -41 -2 0
-4 7 -4 16 0 8 5 12 10 9 6 -3 10 1 10 9 0 9 5 16 10 16 6 0 10 -4 10 -9z
m-3013 -7 c-3 -3 -12 -4 -19 -1 -8 3 -5 6 6 6 11 1 17 -2 13 -5z m1930 0 c-3
-3 -12 -4 -19 -1 -8 3 -5 6 6 6 11 1 17 -2 13 -5z m2010 -26 c-3 -8 -6 -5 -6
6 -1 11 2 17 5 13 3 -3 4 -12 1 -19z m-3877 -10 c0 -16 -3 -19 -11 -11 -6 6
-8 16 -5 22 11 17 16 13 16 -11z m1870 13 c0 -6 -4 -13 -10 -16 -5 -3 -10 1
-10 9 0 9 5 16 10 16 6 0 10 -4 10 -9z m83 -32 c14 -1 16 -3 6 -6 -8 -2 -29 1
-44 7 -23 9 -26 13 -15 20 10 6 17 4 23 -5 4 -8 18 -16 30 -16z m-1104 -18
c-13 -16 -33 -30 -44 -30 -19 0 -18 1 3 12 12 7 29 23 38 36 9 12 18 20 21 17
3 -3 -5 -18 -18 -35z m1991 9 c0 -5 -6 -10 -14 -10 -8 0 -23 -3 -33 -7 -16 -6
-16 -5 -4 10 15 18 51 23 51 7z m1017 -12 c-3 -8 -6 -5 -6 6 -1 11 2 17 5 13
3 -3 4 -12 1 -19z m-3990 -10 c-3 -8 -6 -5 -6 6 -1 11 2 17 5 13 3 -3 4 -12 1
-19z m2156 5 c-7 -2 -19 -2 -25 0 -7 3 -2 5 12 5 14 0 19 -2 13 -5z m721 -8
c-7 -16 -24 -21 -24 -6 0 8 7 13 27 20 1 1 0 -6 -3 -14z m186 -15 c0 -5 -7 -7
-15 -4 -8 4 -12 10 -9 15 6 11 24 2 24 -11z m-860 6 c0 -3 -4 -8 -10 -11 -5
-3 -10 -1 -10 4 0 6 5 11 10 11 6 0 10 -2 10 -4z m-293 -53 c-3 -10 -5 -4 -5
12 0 17 2 24 5 18 2 -7 2 -21 0 -30z m415 25 c-8 -8 -17 -8 -34 0 -22 10 -21
11 12 11 26 1 31 -2 22 -11z m1599 -26 c-6 -2 -11 -12 -11 -23 0 -10 -4 -19
-10 -19 -16 0 -11 39 8 58 14 15 18 15 21 3 2 -9 -2 -17 -8 -19z m-3029 -14
c-9 -9 -12 -7 -12 12 0 19 3 21 12 12 9 -9 9 -15 0 -24z m1670 20 c-5 -5 -19
-4 -33 1 -23 10 -22 10 8 8 18 0 29 -5 25 -9z m-2545 -30 c-3 -8 -6 -5 -6 6
-1 11 2 17 5 13 3 -3 4 -12 1 -19z m778 12 c3 -5 1 -10 -4 -10 -6 0 -11 5 -11
10 0 6 2 10 4 10 3 0 8 -4 11 -10z m2 -26 c-3 -3 -12 -4 -19 -1 -8 3 -5 6 6 6
11 1 17 -2 13 -5z m43 -8 c0 -3 -4 -8 -10 -11 -5 -3 -10 -1 -10 4 0 6 5 11 10
11 6 0 10 -2 10 -4z m1197 -33 c-3 -10 -5 -4 -5 12 0 17 2 24 5 18 2 -7 2 -21
0 -30z m-937 17 c0 -5 -7 -7 -15 -4 -8 4 -15 8 -15 10 0 2 7 4 15 4 8 0 15 -4
15 -10z m-390 -4 c0 -2 -7 -6 -15 -10 -8 -3 -15 -1 -15 4 0 6 7 10 15 10 8 0
15 -2 15 -4z m327 -12 c-3 -3 -12 -4 -19 -1 -8 3 -5 6 6 6 11 1 17 -2 13 -5z
m-42 -14 c3 -5 1 -10 -4 -10 -6 0 -11 5 -11 10 0 6 2 10 4 10 3 0 8 -4 11 -10z
m2822 -42 c-3 -7 -5 -2 -5 12 0 14 2 19 5 13 2 -7 2 -19 0 -25z m-3430 -20
c-3 -7 -5 -2 -5 12 0 14 2 19 5 13 2 -7 2 -19 0 -25z m203 23 c0 -6 -4 -13
-10 -16 -5 -3 -10 1 -10 9 0 9 5 16 10 16 6 0 10 -4 10 -9z m2990 -1 c0 -5 -5
-10 -11 -10 -5 0 -7 5 -4 10 3 6 8 10 11 10 2 0 4 -4 4 -10z m-2684 -47 c-10
-10 -19 5 -10 18 6 11 8 11 12 0 2 -7 1 -15 -2 -18z m2709 17 c-3 -5 -10 -10
-16 -10 -5 0 -9 5 -9 10 0 6 7 10 16 10 8 0 12 -4 9 -10z m-2165 -20 c0 -5 -2
-10 -4 -10 -3 0 -8 5 -11 10 -3 6 -1 10 4 10 6 0 11 -4 11 -10z m-1193 -20
c-1 -11 -5 -20 -9 -20 -10 0 -10 4 -2 24 8 22 13 20 11 -4z m3200 -32 c-3 -8
-6 -5 -6 6 -1 11 2 17 5 13 3 -3 4 -12 1 -19z m-3030 -20 c-3 -7 -5 -2 -5 12
0 14 2 19 5 13 2 -7 2 -19 0 -25z m1523 22 c0 -5 -4 -10 -10 -10 -5 0 -10 5
-10 10 0 6 5 10 10 10 6 0 10 -4 10 -10z m1950 -21 c0 -5 -4 -9 -10 -9 -5 0
-10 7 -10 16 0 8 5 12 10 9 6 -3 10 -10 10 -16z m-4016 -40 c6 -45 -3 -79 -20
-79 -8 0 -14 5 -14 11 0 5 5 7 10 4 6 -4 10 15 10 51 0 62 7 69 14 13z m3633
19 c-3 -8 -6 -5 -6 6 -1 11 2 17 5 13 3 -3 4 -12 1 -19z m-3147 -8 c0 -5 -2
-10 -4 -10 -3 0 -8 5 -11 10 -3 6 -1 10 4 10 6 0 11 -4 11 -10z m617 -12 c2
-18 0 -20 -7 -8 -12 18 -13 30 -2 30 4 0 9 -10 9 -22z m363 12 c0 -5 -2 -10
-4 -10 -3 0 -8 5 -11 10 -3 6 -1 10 4 10 6 0 11 -4 11 -10z m460 -15 c14 -19
14 -19 -2 -6 -10 7 -18 18 -18 24 0 6 1 8 3 6 1 -2 9 -13 17 -24z m-39 -32
c-6 -10 -11 -14 -11 -10 0 5 -5 5 -11 1 -8 -4 -7 -9 2 -15 10 -6 7 -8 -9 -6
-29 2 -28 10 3 27 14 7 25 18 25 23 0 6 3 8 6 4 3 -3 1 -14 -5 -24z m-1286 -1
c-3 -3 -11 0 -18 7 -9 10 -8 11 6 5 10 -3 15 -9 12 -12z m825 12 c0 -9 -32
-33 -44 -34 -5 0 -1 9 10 19 19 20 34 26 34 15z m2167 -26 c-3 -8 -6 -5 -6 6
-1 11 2 17 5 13 3 -3 4 -12 1 -19z m-1967 8 c0 -2 -7 -7 -16 -10 -8 -3 -12 -2
-9 4 6 10 25 14 25 6z m-560 -22 c0 -8 -5 -12 -10 -9 -6 4 -8 11 -5 16 9 14
15 11 15 -7z m-1140 -4 c0 -5 -7 -10 -15 -10 -8 0 -15 5 -15 10 0 6 7 10 15
10 8 0 15 -4 15 -10z m1445 0 c3 -5 -1 -10 -9 -10 -9 0 -16 5 -16 10 0 6 4 10
9 10 6 0 13 -4 16 -10z m715 0 c0 -5 -7 -10 -15 -10 -8 0 -15 5 -15 10 0 6 7
10 15 10 8 0 15 -4 15 -10z m528 -27 c21 -21 -3 -15 -29 7 -21 17 -21 19 -4
13 11 -4 26 -13 33 -20z m-768 2 c-7 -8 -16 -15 -21 -15 -5 0 -6 7 -3 15 4 8
13 15 21 15 13 0 13 -3 3 -15z m600 11 c0 -3 -4 -8 -10 -11 -5 -3 -10 -1 -10
4 0 6 5 11 10 11 6 0 10 -2 10 -4z m100 -12 c0 -2 -7 -4 -15 -4 -8 0 -15 4
-15 10 0 5 7 7 15 4 8 -4 15 -8 15 -10z m-1215 -4 c-3 -5 -2 -10 3 -10 5 0 9
-7 9 -15 0 -8 -7 -15 -14 -15 -8 0 -11 5 -8 10 4 6 -6 11 -22 11 -21 1 -23 3
-8 6 11 3 24 9 30 14 12 12 18 11 10 -1z m255 -5 c0 -8 -4 -15 -10 -15 -5 0
-10 7 -10 15 0 8 5 15 10 15 6 0 10 -7 10 -15z m-1660 -5 c0 -5 -4 -10 -10
-10 -5 0 -10 5 -10 10 0 6 5 10 10 10 6 0 10 -4 10 -10z m80 0 c0 -5 -4 -10
-10 -10 -5 0 -10 5 -10 10 0 6 5 10 10 10 6 0 10 -4 10 -10z m77 -12 c-3 -8
-6 -5 -6 6 -1 11 2 17 5 13 3 -3 4 -12 1 -19z m1840 6 c-3 -4 -19 -6 -34 -6
-15 0 -31 -5 -35 -11 -4 -6 -10 -8 -15 -4 -10 11 18 28 38 23 9 -2 23 0 30 5
14 8 27 3 16 -7z m139 -15 c25 -17 51 -28 59 -25 8 3 12 0 9 -8 -5 -12 54 -46
80 -46 8 0 16 -9 19 -21 5 -18 11 -15 59 33 73 72 86 78 177 78 103 0 161 -22
161 -62 0 -8 6 -20 13 -27 10 -11 9 -14 -1 -18 -17 -7 -5 -23 19 -23 10 0 19
-4 19 -10 0 -5 6 -10 13 -10 16 0 37 -41 37 -71 0 -23 -18 -61 -34 -71 -6 -4
-29 -8 -51 -9 -37 -1 -36 -2 15 -9 39 -6 57 -5 62 3 6 9 8 9 8 0 0 -6 -4 -15
-10 -18 -5 -3 -10 -18 -10 -33 0 -29 -29 -69 -72 -96 -16 -10 -28 -23 -28 -28
0 -26 -122 -95 -185 -105 -33 -5 -220 40 -240 58 -5 5 -19 9 -31 9 -13 0 -26
5 -29 10 -3 6 -28 10 -55 10 -27 0 -52 5 -55 10 -3 6 -35 10 -71 10 -41 0 -63
4 -59 10 4 6 -15 10 -49 10 -31 0 -56 5 -56 10 0 6 -18 10 -39 10 -22 0 -43 5
-46 10 -3 6 -22 10 -41 10 -19 0 -34 5 -34 10 0 6 -16 10 -35 10 -19 0 -35 5
-35 10 0 6 -7 10 -16 10 -36 0 -254 178 -254 208 0 4 -8 17 -17 28 -21 22 -43
81 -43 112 0 31 16 36 48 15 90 -61 314 -93 412 -58 23 8 67 15 97 15 30 0 52
3 50 8 -3 4 18 8 47 10 28 2 53 7 54 12 2 6 12 10 23 10 10 0 19 5 19 10 0 6
7 10 15 10 8 0 15 5 15 10 0 17 20 11 66 -21z m73 -7 c-10 -2 -26 3 -34 12
-24 24 -17 27 19 8 27 -13 30 -18 15 -20z m-2165 3 c-6 -25 10 -36 19 -12 4 7
6 6 6 -5 1 -9 4 -25 7 -35 5 -16 4 -16 -10 1 -9 11 -16 17 -16 13 0 -5 -6 -2
-14 5 -10 10 -11 19 -3 35 14 30 19 29 11 -2z m1425 5 c4 0 8 -6 8 -14 0 -12
-4 -12 -24 1 -26 18 -31 28 -7 19 9 -3 19 -6 23 -6z m916 0 c-3 -5 -10 -10
-16 -10 -5 0 -9 5 -9 10 0 6 7 10 16 10 8 0 12 -4 9 -10z m-745 -21 c0 -5 -4
-9 -10 -9 -5 0 -10 7 -10 16 0 8 5 12 10 9 6 -3 10 -10 10 -16z m219 12 c9 -6
10 -11 2 -15 -6 -4 -11 -3 -11 3 0 5 -8 12 -17 14 -13 3 -14 5 -3 6 8 0 21 -3
29 -8z m481 -21 c0 -5 -4 -10 -10 -10 -5 0 -10 5 -10 10 0 6 5 10 10 10 6 0
10 -4 10 -10z m403 -10 c3 -11 1 -18 -4 -14 -5 3 -9 12 -9 20 0 20 7 17 13 -6z
m-458 0 c3 -5 -1 -10 -9 -10 -9 0 -16 5 -16 10 0 6 4 10 9 10 6 0 13 -4 16
-10z m-682 -7 c-13 -2 -33 -2 -45 0 -13 2 -3 4 22 4 25 0 35 -2 23 -4z m-1477
-27 c9 -19 8 -25 -9 -35 -18 -12 -19 -10 -15 18 2 17 0 33 -6 35 -6 2 -4 5 4
5 8 1 20 -10 26 -23z m2194 14 c0 -5 -8 -10 -17 -10 -15 0 -16 2 -3 10 19 12
20 12 20 0z m1250 -10 c0 -5 -2 -10 -4 -10 -3 0 -8 5 -11 10 -3 6 -1 10 4 10
6 0 11 -4 11 -10z m491 -33 c-10 -9 -11 -8 -5 6 3 10 9 15 12 12 3 -3 0 -11
-7 -18z m-1261 -1 c0 -3 -4 -8 -10 -11 -5 -3 -10 -1 -10 4 0 6 5 11 10 11 6 0
10 -2 10 -4z m17 -28 c-3 -7 -5 -2 -5 12 0 14 2 19 5 13 2 -7 2 -19 0 -25z
m713 8 c0 -2 -8 -10 -17 -17 -16 -13 -17 -12 -4 4 13 16 21 21 21 13z m-2254
-33 c-10 -10 -19 5 -10 18 6 11 8 11 12 0 2 -7 1 -15 -2 -18z m2769 18 c3 -5
1 -12 -5 -16 -5 -3 -10 1 -10 9 0 18 6 21 15 7z m-60 -11 c3 -5 1 -10 -4 -10
-6 0 -11 5 -11 10 0 6 2 10 4 10 3 0 8 -4 11 -10z m-3697 -28 c4 -14 0 -15
-22 -6 -9 3 -16 10 -16 14 0 12 33 5 38 -8z m1037 8 c3 -6 -1 -7 -9 -4 -18 7
-21 14 -7 14 6 0 13 -4 16 -10z m-1004 -53 c-8 -8 -11 -8 -11 2 0 7 -4 9 -10
6 -5 -3 -10 0 -10 8 0 22 11 27 28 11 11 -11 12 -18 3 -27z m989 33 c0 -5 -4
-10 -10 -10 -5 0 -10 5 -10 10 0 6 5 10 10 10 6 0 10 -4 10 -10z m2010 -20 c0
-5 -4 -10 -10 -10 -5 0 -10 5 -10 10 0 6 5 10 10 10 6 0 10 -4 10 -10z m-477
-20 c-3 -12 -8 -19 -11 -16 -5 6 5 36 12 36 2 0 2 -9 -1 -20z m1152 1 c-3 -6
-11 -11 -17 -11 -6 0 -6 6 2 15 14 17 26 13 15 -4z m-2631 -7 c3 -8 2 -12 -4
-9 -6 3 -10 10 -10 16 0 14 7 11 14 -7z m36 -14 c0 -5 -5 -10 -11 -10 -5 0 -7
5 -4 10 3 6 8 10 11 10 2 0 4 -4 4 -10z m1690 -20 c0 -5 -5 -10 -11 -10 -5 0
-7 5 -4 10 3 6 8 10 11 10 2 0 4 -4 4 -10z m880 6 c0 -3 -4 -8 -10 -11 -5 -3
-10 -1 -10 4 0 6 5 11 10 11 6 0 10 -2 10 -4z m-2513 -62 c-3 -3 -12 -4 -19
-1 -8 3 -5 6 6 6 11 1 17 -2 13 -5z m-932 -15 c4 -6 13 -8 21 -5 8 3 14 1 14
-4 0 -6 -9 -10 -20 -10 -11 0 -20 4 -20 9 0 5 -8 12 -17 14 -16 4 -16 5 -1 6
9 0 20 -4 23 -10z m2303 -14 c-3 -3 -9 2 -12 12 -6 14 -5 15 5 6 7 -7 10 -15
7 -18z m429 19 c-3 -3 -12 -4 -19 -1 -8 3 -5 6 6 6 11 1 17 -2 13 -5z m-1787
-24 c0 -5 -7 -7 -15 -4 -8 4 -15 8 -15 10 0 2 7 4 15 4 8 0 15 -4 15 -10z
m1745 0 c-3 -5 -11 -10 -16 -10 -6 0 -7 5 -4 10 3 6 11 10 16 10 6 0 7 -4 4
-10z m-1705 -41 c7 -13 7 -19 0 -19 -5 0 -10 7 -10 15 0 8 -4 15 -10 15 -5 0
-10 5 -10 11 0 14 18 2 30 -22z m90 -3 c0 -8 -6 -18 -12 -22 -7 -4 -10 -4 -6
1 4 4 0 14 -10 21 -16 12 -15 13 6 14 13 0 22 -6 22 -14z m-920 -6 c0 -5 -2
-10 -4 -10 -3 0 -8 5 -11 10 -3 6 -1 10 4 10 6 0 11 -4 11 -10z m2457 4 c-3
-3 -12 -4 -19 -1 -8 3 -5 6 6 6 11 1 17 -2 13 -5z m-1408 -41 c0 -11 -3 -13
-6 -6 -3 8 -14 11 -29 7 -15 -4 -24 -2 -24 5 0 6 14 11 30 11 22 0 30 -5 29
-17z m1071 7 c0 -5 -14 -10 -31 -10 -17 0 -28 4 -24 10 3 6 17 10 31 10 13 0
24 -4 24 -10z m-2030 -21 c0 -5 -4 -9 -8 -9 -5 0 -9 7 -9 15 0 8 4 12 9 9 4
-3 8 -9 8 -15z m2814 6 c-4 -8 -10 -12 -15 -9 -11 6 -2 24 11 24 5 0 7 -7 4
-15z m179 8 c-7 -2 -19 -2 -25 0 -7 3 -2 5 12 5 14 0 19 -2 13 -5z m-2946 -9
c-3 -3 -12 -4 -19 -1 -8 3 -5 6 6 6 11 1 17 -2 13 -5z m993 -4 c-8 -5 -26 -9
-40 -9 -23 1 -23 2 5 9 43 11 52 11 35 0z m-990 -20 c0 -5 -4 -10 -9 -10 -6 0
-13 5 -16 10 -3 6 1 10 9 10 9 0 16 -4 16 -10z m42 -15 c0 -5 -5 -11 -11 -13
-6 -2 -11 4 -11 13 0 9 5 15 11 13 6 -2 11 -8 11 -13z m1953 -5 c3 -5 1 -10
-4 -10 -6 0 -11 5 -11 10 0 6 2 10 4 10 3 0 8 -4 11 -10z m840 0 c3 -5 -1 -10
-9 -10 -9 0 -16 5 -16 10 0 6 4 10 9 10 6 0 13 -4 16 -10z m-2735 -14 c0 -2
-7 -7 -16 -10 -8 -3 -12 -2 -9 4 6 10 25 14 25 6z m2690 -6 c0 -5 -7 -10 -15
-10 -8 0 -15 5 -15 10 0 6 7 10 15 10 8 0 15 -4 15 -10z m-1447 -7 c-7 -2 -21
-2 -30 0 -10 3 -4 5 12 5 17 0 24 -2 18 -5z m517 -17 c0 -3 -4 -8 -10 -11 -5
-3 -10 -1 -10 4 0 6 5 11 10 11 6 0 10 -2 10 -4z m810 -16 c-8 -5 -19 -10 -25
-10 -5 0 -3 5 5 10 8 5 20 10 25 10 6 0 3 -5 -5 -10z m-2500 -20 c0 -5 -2 -10
-4 -10 -3 0 -8 5 -11 10 -3 6 -1 10 4 10 6 0 11 -4 11 -10z m25 -10 c-3 -5 1
-10 9 -10 9 0 16 -7 16 -15 0 -19 -7 -19 -26 -1 -17 17 -18 36 -3 36 5 0 7 -4
4 -10z m1475 -20 c11 -7 7 -10 -17 -10 -18 0 -33 5 -33 10 0 13 30 13 50 0z
m917 4 c-3 -3 -12 -4 -19 -1 -8 3 -5 6 6 6 11 1 17 -2 13 -5z m-2192 -33 c3
-5 1 -12 -5 -16 -5 -3 -10 1 -10 9 0 18 6 21 15 7z m2098 -8 c-7 -2 -19 -2
-25 0 -7 3 -2 5 12 5 14 0 19 -2 13 -5z m630 -16 c22 -3 35 -2 32 4 -8 12 26
11 45 -1 12 -8 11 -10 -7 -10 -12 0 -23 -5 -25 -11 -2 -7 -34 -13 -76 -15 -57
-3 -72 -1 -72 11 0 8 -8 12 -19 10 -11 -2 -22 3 -25 12 -5 11 -2 14 10 9 8 -3
25 -6 35 -6 11 0 17 -4 14 -10 -4 -6 11 -10 37 -9 41 1 42 1 16 11 -16 5 -28
14 -28 20 0 7 4 7 13 1 6 -6 29 -13 50 -16z m-2833 -1 c0 -2 -7 -6 -15 -10 -8
-3 -15 -1 -15 4 0 6 7 10 15 10 8 0 15 -2 15 -4z m2150 -6 c0 -5 -2 -10 -4
-10 -3 0 -8 5 -11 10 -3 6 -1 10 4 10 6 0 11 -4 11 -10z m807 4 c-3 -3 -12 -4
-19 -1 -8 3 -5 6 6 6 11 1 17 -2 13 -5z m100 0 c-3 -3 -12 -4 -19 -1 -8 3 -5
6 6 6 11 1 17 -2 13 -5z m283 2 c0 -3 -4 -8 -10 -11 -5 -3 -10 -1 -10 4 0 6 5
11 10 11 6 0 10 -2 10 -4z m-60 -16 c0 -5 -5 -10 -11 -10 -5 0 -7 5 -4 10 3 6
8 10 11 10 2 0 4 -4 4 -10z m-3250 -7 c0 -5 -5 -15 -10 -23 -8 -13 -10 -13
-10 2 0 9 -6 19 -12 21 -7 3 -3 6 10 6 12 1 22 -2 22 -6z m2063 -3 c-12 -5
-24 -18 -28 -29 -6 -20 -25 -30 -25 -13 0 18 36 52 55 51 19 0 19 -1 -2 -9z
m1173 -40 c32 -17 31 -31 -1 -17 -14 7 -25 15 -25 20 0 4 -8 7 -17 8 -11 0
-13 3 -5 6 6 2 13 12 13 21 1 11 3 10 6 -4 2 -12 15 -27 29 -34z m-3216 0 c9
-16 8 -18 -5 -14 -8 4 -15 12 -15 20 0 20 7 17 20 -6z m2555 -10 c3 -11 11
-20 16 -20 5 0 9 -4 9 -10 0 -5 -6 -10 -14 -10 -8 0 -21 -8 -28 -18 -34 -47
-67 -37 -38 11 11 18 20 40 20 50 0 24 27 22 35 -3z m-2505 -32 c0 -10 -27
-10 -34 0 -2 4 4 8 15 8 10 0 19 -4 19 -8z m1907 6 c-3 -3 -12 -4 -19 -1 -8 3
-5 6 6 6 11 1 17 -2 13 -5z m-32 -24 c-3 -5 -14 -10 -23 -9 -14 0 -13 2 3 9
27 11 27 11 20 0z m-1855 -4 c0 -3 -4 -8 -10 -11 -5 -3 -10 -1 -10 4 0 6 5 11
10 11 6 0 10 -2 10 -4z m1825 -26 c-4 -6 -11 -8 -16 -5 -5 4 -9 1 -9 -5 0 -6
-5 -8 -11 -4 -8 4 -7 9 2 15 19 12 42 11 34 -1z m1432 4 c-3 -3 -12 -4 -19 -1
-8 3 -5 6 6 6 11 1 17 -2 13 -5z m-3230 -26 c-3 -8 -6 -5 -6 6 -1 11 2 17 5
13 3 -3 4 -12 1 -19z m1753 -9 c0 -5 -4 -7 -10 -4 -5 3 -10 0 -10 -8 0 -7 -14
-26 -30 -42 -26 -24 -33 -27 -40 -15 -5 8 -7 17 -4 19 3 3 9 -1 14 -9 6 -9 10
-10 10 -3 0 15 49 73 61 73 5 0 9 -5 9 -11z m-1700 -23 c0 -3 -4 -8 -10 -11
-5 -3 -10 -1 -10 4 0 6 5 11 10 11 6 0 10 -2 10 -4z"/>
<path d="M3260 3980 c0 -5 10 -10 23 -10 18 0 19 2 7 10 -19 13 -30 13 -30 0z"/>
<path d="M3267 3944 c-4 -4 -7 -14 -7 -23 0 -11 3 -12 11 -4 6 6 10 16 7 23
-2 6 -7 8 -11 4z"/>
<path d="M4308 3693 c7 -3 16 -2 19 1 4 3 -2 6 -13 5 -11 0 -14 -3 -6 -6z"/>
<path d="M4221 3574 c0 -11 3 -14 6 -6 3 7 2 16 -1 19 -3 4 -6 -2 -5 -13z"/>
<path d="M4045 3540 c-3 -5 -1 -10 4 -10 6 0 11 5 11 10 0 6 -2 10 -4 10 -3 0
-8 -4 -11 -10z"/>
<path d="M785 3621 c-6 -11 9 -23 19 -14 9 9 7 23 -3 23 -6 0 -12 -4 -16 -9z"/>
<path d="M845 3610 c-3 -5 -1 -10 4 -10 6 0 11 5 11 10 0 6 -2 10 -4 10 -3 0
-8 -4 -11 -10z"/>
<path d="M810 3574 c0 -8 5 -12 10 -9 6 3 10 10 10 16 0 5 -4 9 -10 9 -5 0
-10 -7 -10 -16z"/>
<path d="M850 3540 c0 -5 5 -10 11 -10 5 0 7 5 4 10 -3 6 -8 10 -11 10 -2 0
-4 -4 -4 -10z"/>
<path d="M827 3475 c-8 -20 -4 -29 11 -24 5 2 6 13 2 23 -6 19 -7 19 -13 1z"/>
<path d="M879 3458 c-2 -24 3 -43 15 -56 10 -10 18 -10 41 2 l29 15 -27 10
c-15 6 -27 17 -27 26 0 18 -29 21 -31 3z"/>
<path d="M777 3402 c-10 -10 -17 -22 -17 -25 0 -13 48 -7 60 8 10 12 9 15 -4
15 -10 0 -14 5 -11 10 11 17 -11 11 -28 -8z"/>
<path d="M710 3403 c0 -5 4 -15 10 -23 11 -18 25 -7 17 15 -6 15 -27 21 -27 8z"/>
<path d="M862 3379 c2 -6 8 -10 13 -10 5 0 11 4 13 10 2 6 -4 11 -13 11 -9 0
-15 -5 -13 -11z"/>
<path d="M660 3350 c-14 -10 -21 -22 -17 -26 9 -9 60 19 65 35 6 17 -21 12
-48 -9z"/>
<path d="M720 3330 c-14 -11 -45 -21 -70 -24 -55 -6 -50 -5 -50 -13 0 -5 24
-8 54 -8 44 0 60 5 80 24 43 40 32 56 -14 21z"/>
<path d="M643 3273 c9 -2 17 -9 17 -14 0 -6 5 -7 11 -3 14 8 -8 24 -31 23 -11
-1 -10 -3 3 -6z"/>
<path d="M3210 3461 c0 -5 -10 -11 -22 -13 -26 -3 -38 -38 -14 -38 9 0 16 5
16 10 0 6 25 10 55 10 30 0 55 5 55 10 0 6 -13 10 -30 10 -16 0 -30 5 -30 10
0 6 -7 10 -15 10 -8 0 -15 -4 -15 -9z"/>
<path d="M3137 3375 c-10 -58 -9 -105 3 -105 6 0 10 18 10 39 0 22 5 43 10 46
6 3 10 13 10 21 0 8 -4 13 -9 9 -5 -3 -11 3 -13 12 -2 10 -7 0 -11 -22z"/>
<path d="M3360 3230 c0 -5 -9 -10 -20 -10 -11 0 -20 -7 -20 -15 0 -8 -4 -15
-10 -15 -6 0 -10 -35 -10 -85 0 -50 4 -85 10 -85 6 0 10 -11 10 -25 0 -14 5
-25 10 -25 6 0 10 11 10 24 0 14 -4 28 -10 31 -5 3 -10 31 -10 61 0 30 5 54
10 54 6 0 10 7 10 16 0 26 27 44 66 44 30 0 44 -7 76 -40 28 -28 40 -35 44
-25 7 17 -58 85 -81 85 -8 0 -15 5 -15 10 0 6 -16 10 -35 10 -19 0 -35 -4 -35
-10z"/>
<path d="M3367 3133 c-2 -5 -10 -28 -17 -52 -11 -34 -12 -45 -2 -49 7 -2 12
-12 12 -23 0 -10 5 -19 10 -19 6 0 10 14 10 30 0 36 14 39 35 6 17 -25 11 -56
-11 -56 -18 0 -18 -8 0 -26 15 -14 108 -20 104 -6 -2 4 3 22 11 40 10 25 11
36 2 45 -6 6 -11 21 -11 34 0 13 -3 23 -7 23 -5 0 -17 14 -28 30 -17 25 -26
30 -62 30 -23 0 -44 -3 -46 -7z"/>
<path d="M3530 2880 c0 -5 5 -10 10 -10 6 0 10 5 10 10 0 6 -4 10 -10 10 -5 0
-10 -4 -10 -10z"/>
<path d="M2510 2630 c0 -5 -7 -10 -16 -10 -21 0 -70 -53 -95 -102 -23 -45 -38
-158 -20 -158 6 0 12 -18 12 -42 1 -24 5 -5 9 42 7 84 27 160 42 160 4 0 8 6
8 13 0 6 14 23 31 37 62 48 100 60 137 41 9 -5 31 -15 47 -22 17 -8 35 -18 42
-24 7 -5 20 -16 28 -24 9 -7 19 -10 22 -7 8 7 -78 86 -94 86 -7 0 -13 5 -13
10 0 6 -30 10 -70 10 -40 0 -70 -4 -70 -10z"/>
<path d="M2552 2554 c-12 -8 -22 -24 -22 -34 0 -10 -4 -22 -10 -25 -17 -11
-12 -82 6 -89 9 -4 19 -4 22 -1 3 3 0 5 -6 5 -7 0 -12 9 -12 20 0 16 7 20 30
20 17 0 31 -3 31 -7 7 -43 5 -52 -17 -57 -13 -4 -24 -10 -24 -15 0 -12 37 -35
77 -49 37 -12 79 2 89 31 3 9 10 17 15 17 5 0 9 18 9 40 0 37 -26 97 -53 125
-37 37 -97 46 -135 19z"/>
<path d="M2765 2500 c3 -5 8 -10 11 -10 2 0 4 5 4 10 0 6 -5 10 -11 10 -5 0
-7 -4 -4 -10z"/>
<path d="M2780 2460 c0 -5 5 -10 10 -10 6 0 10 5 10 10 0 6 -4 10 -10 10 -5 0
-10 -4 -10 -10z"/>
<path d="M3800 2435 c0 -14 -4 -25 -10 -25 -5 0 -10 -11 -10 -25 0 -14 -4 -25
-10 -25 -5 0 -10 -7 -10 -15 0 -8 -4 -15 -10 -15 -5 0 -10 -8 -10 -17 0 -17
-23 -49 -71 -101 -11 -13 -18 -26 -14 -30 7 -7 75 67 75 82 0 5 6 17 14 25 8
9 28 41 45 73 31 56 40 98 21 98 -5 0 -10 -11 -10 -25z"/>
<path d="M3629 2156 c-7 -9 -25 -28 -38 -42 -37 -40 -16 -40 24 0 20 20 35 42
33 48 -3 7 -9 5 -19 -6z"/>
<path d="M3542 2075 c-11 -12 -10 -15 3 -15 8 0 15 7 15 15 0 18 -2 18 -18 0z"/>
<path d="M3510 2050 c0 -5 5 -10 11 -10 5 0 7 5 4 10 -3 6 -8 10 -11 10 -2 0
-4 -4 -4 -10z"/>
<path d="M3388 1983 c7 -3 16 -2 19 1 4 3 -2 6 -13 5 -11 0 -14 -3 -6 -6z"/>
<path d="M3300 1961 c0 -5 11 -8 25 -6 38 4 43 15 7 15 -18 0 -32 -4 -32 -9z"/>
<path d="M3248 1938 c17 -8 26 -8 34 0 9 9 4 12 -22 11 -33 0 -34 -1 -12 -11z"/>
<path d="M2887 1911 c-20 -20 -31 -61 -16 -61 5 0 9 9 9 20 0 13 7 20 19 20
16 0 31 18 31 36 0 10 -27 1 -43 -15z"/>
<path d="M3105 1920 c-8 -13 55 -13 75 0 11 7 4 10 -27 10 -23 0 -45 -4 -48
-10z"/>
<path d="M2975 1900 c28 -12 63 -12 70 0 4 6 -12 10 -42 9 -36 0 -43 -3 -28
-9z"/>
<path d="M4070 1625 c0 -25 5 -45 10 -45 6 0 10 20 10 45 0 25 -4 45 -10 45
-5 0 -10 -20 -10 -45z"/>
<path d="M4050 1554 c0 -8 5 -12 10 -9 6 4 8 11 5 16 -9 14 -15 11 -15 -7z"/>
<path d="M4030 1516 c0 -8 -9 -18 -20 -21 -11 -4 -18 -11 -15 -16 12 -18 31
-8 42 21 6 17 7 30 2 30 -5 0 -9 -6 -9 -14z"/>
<path d="M2678 903 c6 -2 18 -2 25 0 6 3 1 5 -13 5 -14 0 -19 -2 -12 -5z"/>
<path d="M2316 834 c-3 -9 -6 -23 -6 -32 0 -14 2 -15 9 -2 6 8 7 18 5 22 -3 4
0 8 5 8 6 0 11 5 11 10 0 16 -17 12 -24 -6z"/>
<path d="M890 4546 c0 -14 5 -28 10 -31 6 -3 10 5 10 19 0 14 -4 28 -10 31 -6
3 -10 -5 -10 -19z"/>
<path d="M1200 4560 c0 -5 5 -10 10 -10 6 0 10 5 10 10 0 6 -4 10 -10 10 -5 0
-10 -4 -10 -10z"/>
<path d="M2280 4530 c0 -22 5 -40 10 -40 6 0 10 18 10 40 0 22 -4 40 -10 40
-5 0 -10 -18 -10 -40z"/>
<path d="M3940 4560 c0 -5 5 -10 10 -10 6 0 10 5 10 10 0 6 -4 10 -10 10 -5 0
-10 -4 -10 -10z"/>
<path d="M4030 4537 c0 -21 5 -48 11 -59 12 -21 9 -30 -32 -110 -5 -10 -9 -22
-9 -27 0 -12 -48 -61 -59 -61 -11 0 -41 63 -41 87 0 32 35 120 46 116 13 -4 7
44 -6 52 -14 8 -40 -6 -40 -22 0 -8 -4 -11 -10 -8 -8 5 -15 -49 -12 -86 1 -3
-11 -5 -26 -4 -15 2 -19 0 -9 -2 17 -4 19 -14 15 -99 -1 -52 0 -94 5 -94 4 0
7 9 7 20 0 24 25 27 34 4 4 -11 13 -14 27 -11 12 3 32 2 45 -3 20 -8 24 -6 24
8 0 9 5 24 10 32 8 13 13 12 32 -8 l23 -23 -23 -6 c-18 -4 -20 -8 -10 -14 19
-13 28 -11 28 6 0 8 5 15 11 15 9 0 8 4 0 14 -6 7 -8 27 -5 45 4 20 3 31 -5
31 -6 0 -11 -9 -11 -20 0 -11 -4 -20 -10 -20 -5 0 -10 9 -10 20 0 11 5 20 10
20 6 0 10 9 10 19 0 11 5 21 10 23 6 2 12 13 13 25 0 12 5 19 9 17 4 -3 8 5 8
17 0 16 5 20 20 16 11 -3 20 -1 20 4 0 5 -4 9 -10 9 -21 0 -9 30 13 31 22 0
21 1 -3 12 -14 6 -28 16 -32 22 -5 6 -8 2 -8 -8 0 -17 -22 -47 -34 -47 -3 0
-6 11 -6 25 0 14 6 25 13 25 8 0 9 3 1 8 -6 4 -16 16 -22 27 -10 18 -11 15
-12 -18z"/>
<path d="M4105 4560 c-3 -5 0 -10 8 -10 8 0 20 -7 27 -15 7 -9 19 -14 26 -11
6 2 21 -4 32 -14 11 -10 23 -16 26 -13 3 3 41 7 83 9 43 1 84 3 91 3 7 1 10 6
7 11 -3 6 -48 10 -101 10 -56 0 -94 4 -94 10 0 6 -13 10 -30 10 -16 0 -30 5
-30 10 0 6 -9 10 -19 10 -11 0 -23 -4 -26 -10z"/>
<path d="M1225 4538 c-4 -10 -4 -26 0 -35 8 -17 8 -17 12 0 3 9 3 25 0 35 -4
16 -4 16 -12 0z"/>
<path d="M672 4529 c2 -7 10 -15 17 -17 8 -3 12 1 9 9 -2 7 -10 15 -17 17 -8
3 -12 -1 -9 -9z"/>
<path d="M3987 4526 c-18 -19 -24 -72 -7 -61 6 4 8 11 5 16 -4 5 -1 9 5 9 6 0
9 4 6 9 -4 5 -1 11 5 13 7 2 10 10 8 17 -4 11 -9 10 -22 -3z"/>
<path d="M1145 4480 c-3 -5 -1 -10 4 -10 6 0 11 5 11 10 0 6 -2 10 -4 10 -3 0
-8 -4 -11 -10z"/>
<path d="M4011 4468 c-1 -16 4 -28 9 -28 12 0 12 8 0 35 -8 18 -9 17 -9 -7z"/>
<path d="M4155 4480 c-3 -6 1 -7 9 -4 18 7 21 14 7 14 -6 0 -13 -4 -16 -10z"/>
<path d="M2241 4464 c0 -11 3 -14 6 -6 3 7 2 16 -1 19 -3 4 -6 -2 -5 -13z"/>
<path d="M4327 4463 c-13 -13 -7 -21 13 -16 11 3 20 9 20 14 0 10 -24 12 -33
2z"/>
<path d="M1185 4450 c3 -5 8 -10 11 -10 2 0 4 5 4 10 0 6 -5 10 -11 10 -5 0
-7 -4 -4 -10z"/>
<path d="M4200 4450 c0 -5 9 -10 20 -10 11 0 20 5 20 10 0 6 -9 10 -20 10 -11
0 -20 -4 -20 -10z"/>
<path d="M890 4439 c0 -21 57 -59 90 -59 11 0 20 5 20 10 0 6 -13 10 -30 10
-16 0 -30 5 -30 10 0 6 -7 10 -15 10 -8 0 -15 7 -15 15 0 8 -4 15 -10 15 -5 0
-10 -5 -10 -11z"/>
<path d="M3966 4433 c-3 -4 -6 -15 -6 -25 0 -10 -5 -18 -11 -18 -6 0 -9 7 -5
15 3 8 0 15 -7 15 -9 0 -11 -13 -8 -42 2 -24 6 -38 8 -31 2 7 10 10 17 7 8 -3
20 2 29 10 8 8 18 12 22 8 5 -4 5 1 2 11 -4 10 -7 25 -7 32 0 14 -25 27 -34
18z"/>
<path d="M1145 4420 c-19 -8 -19 -9 3 -9 12 -1 22 4 22 9 0 6 -1 10 -2 9 -2 0
-12 -4 -23 -9z"/>
<path d="M4110 4411 c0 -17 18 -21 24 -6 3 9 0 15 -9 15 -8 0 -15 -4 -15 -9z"/>
<path d="M660 4394 c0 -8 5 -12 10 -9 6 4 8 11 5 16 -9 14 -15 11 -15 -7z"/>
<path d="M3593 4388 c-2 -16 1 -18 10 -9 7 7 8 14 1 21 -6 6 -10 2 -11 -12z"/>
<path d="M1495 4390 c-3 -6 1 -7 9 -4 18 7 21 14 7 14 -6 0 -13 -4 -16 -10z"/>
<path d="M4088 4382 c-3 -9 -1 -26 3 -37 6 -15 8 -11 8 18 1 40 -4 48 -11 19z"/>
<path d="M866 4374 c-17 -17 -22 -79 -7 -88 12 -8 22 19 11 30 -10 11 6 54 20
54 5 0 10 5 10 10 0 15 -16 12 -34 -6z"/>
<path d="M2790 4380 c-8 -5 -11 -12 -7 -16 4 -4 13 -2 19 4 15 15 7 24 -12 12z"/>
<path d="M3790 4381 c0 -5 7 -12 16 -15 22 -9 24 -8 18 9 -7 16 -34 21 -34 6z"/>
<path d="M4300 4371 c0 -25 6 -27 13 -6 4 8 2 17 -3 20 -6 4 -10 -3 -10 -14z"/>
<path d="M1010 4370 c-11 -7 -6 -10 20 -10 26 0 31 3 20 10 -8 5 -17 10 -20
10 -3 0 -12 -5 -20 -10z"/>
<path d="M769 4319 c-7 -28 -18 -53 -24 -55 -6 -3 -9 -27 -7 -59 4 -53 5 -55
32 -55 16 0 32 5 35 10 3 6 13 10 21 10 17 0 44 23 44 39 0 5 9 13 20 16 11 3
20 11 20 16 0 5 9 9 21 9 16 0 19 -4 13 -22 -6 -21 -6 -21 10 -5 22 22 12 37
-25 37 -16 0 -29 5 -29 10 0 18 -20 11 -42 -15 -12 -14 -32 -32 -44 -40 -22
-14 -22 -13 -22 35 -1 30 5 53 14 60 21 19 18 60 -5 60 -15 0 -22 -12 -32 -51z"/>
<path d="M943 4356 c-23 -11 -31 -26 -14 -26 10 0 41 28 41 36 0 2 -1 3 -2 3
-2 -1 -13 -6 -25 -13z"/>
<path d="M3748 4353 c6 -2 12 -11 12 -19 0 -9 5 -12 10 -9 19 12 10 35 -12 34
-13 0 -17 -3 -10 -6z"/>
<path d="M4120 4346 c0 -8 4 -17 9 -20 5 -4 7 3 4 14 -6 23 -13 26 -13 6z"/>
<path d="M1000 4339 c0 -5 5 -7 10 -4 6 3 10 8 10 11 0 2 -4 4 -10 4 -5 0 -10
-5 -10 -11z"/>
<path d="M3720 4315 c13 -14 28 -25 34 -25 6 0 3 7 -6 14 -10 7 -18 18 -18 25
0 6 -8 11 -17 11 -14 0 -12 -4 7 -25z"/>
<path d="M3834 4326 c-3 -8 -4 -29 -2 -48 3 -29 4 -27 8 15 5 48 3 58 -6 33z"/>
<path d="M2307 4323 c-11 -10 -8 -43 3 -43 6 0 10 11 10 25 0 26 -2 29 -13 18z"/>
<path d="M902 4313 c-9 -3 -4 -10 13 -19 34 -18 34 -18 28 6 -5 20 -16 23 -41
13z"/>
<path d="M3792 4304 c3 -17 21 -21 26 -6 1 5 -4 12 -13 16 -11 4 -15 1 -13
-10z"/>
<path d="M645 4297 c-4 -10 -5 -21 -1 -24 10 -10 18 4 13 24 -4 17 -4 17 -12
0z"/>
<path d="M3680 4305 c0 -12 33 -55 41 -55 15 0 10 19 -11 40 -20 20 -30 25
-30 15z"/>
<path d="M4090 4280 c0 -21 4 -30 13 -27 6 2 12 14 12 27 0 13 -6 25 -12 28
-9 2 -13 -7 -13 -28z"/>
<path d="M970 4279 c0 -11 5 -17 10 -14 6 3 10 13 10 21 0 8 -4 14 -10 14 -5
0 -10 -9 -10 -21z"/>
<path d="M4255 4290 c-3 -5 -1 -10 4 -10 6 0 11 5 11 10 0 6 -2 10 -4 10 -3 0
-8 -4 -11 -10z"/>
<path d="M806 4272 c-2 -4 -1 -14 5 -22 7 -12 9 -10 9 8 0 23 -5 28 -14 14z"/>
<path d="M831 4264 c0 -11 3 -14 6 -6 3 7 2 16 -1 19 -3 4 -6 -2 -5 -13z"/>
<path d="M3760 4270 c0 -5 5 -10 11 -10 5 0 7 5 4 10 -3 6 -8 10 -11 10 -2 0
-4 -4 -4 -10z"/>
<path d="M3800 4249 c0 -12 -8 -28 -17 -35 -10 -7 -14 -16 -10 -21 5 -4 17 3
27 17 21 27 26 60 10 60 -5 0 -10 -10 -10 -21z"/>
<path d="M3629 4223 c-1 -44 -11 -75 -24 -74 -6 1 -10 -12 -10 -29 -1 -31 10
-29 18 5 4 16 5 14 6 -6 1 -32 40 -85 41 -56 0 10 -6 20 -13 23 -7 2 -12 17
-11 32 0 15 2 52 3 82 2 30 5 49 8 42 2 -6 9 -10 14 -6 13 7 1 24 -17 24 -9 0
-14 -12 -15 -37z"/>
<path d="M4148 4243 c18 -7 15 -23 -5 -23 -15 0 -16 -2 -3 -10 21 -14 30 -12
30 5 0 8 6 15 13 16 14 0 -22 18 -38 18 -5 -1 -4 -3 3 -6z"/>
<path d="M902 4208 c-13 -13 -16 -38 -6 -38 8 0 33 32 34 43 0 11 -15 8 -28
-5z"/>
<path d="M3946 4195 c-3 -8 -1 -15 4 -15 6 0 10 7 10 15 0 8 -2 15 -4 15 -2 0
-6 -7 -10 -15z"/>
<path d="M1383 4181 c1 -20 37 -49 37 -31 0 5 -5 10 -11 10 -5 0 -8 3 -6 8 3
4 -1 13 -8 19 -11 10 -13 9 -12 -6z"/>
<path d="M4460 4191 c0 -9 23 -21 41 -21 4 0 6 7 3 15 -7 16 -44 21 -44 6z"/>
<path d="M3995 4178 c22 -16 85 -29 85 -17 0 4 -16 10 -36 13 -19 4 -43 10
-52 13 -12 4 -12 1 3 -9z"/>
<path d="M860 4170 c0 -5 5 -10 10 -10 6 0 10 5 10 10 0 6 -4 10 -10 10 -5 0
-10 -4 -10 -10z"/>
<path d="M3320 4160 c0 -5 5 -10 10 -10 6 0 10 5 10 10 0 6 -4 10 -10 10 -5 0
-10 -4 -10 -10z"/>
<path d="M3920 4162 c0 -7 -7 -12 -15 -12 -8 0 -15 -4 -15 -10 0 -13 37 -13
46 1 3 6 1 16 -5 22 -8 8 -11 8 -11 -1z"/>
<path d="M1600 4150 c0 -5 5 -10 11 -10 5 0 7 5 4 10 -3 6 -8 10 -11 10 -2 0
-4 -4 -4 -10z"/>
<path d="M3970 4156 c0 -2 7 -6 15 -10 8 -3 15 -1 15 4 0 6 -7 10 -15 10 -8 0
-15 -2 -15 -4z"/>
<path d="M632 4115 c0 -16 2 -22 5 -12 2 9 2 23 0 30 -3 6 -5 -1 -5 -18z"/>
<path d="M775 4130 c-3 -6 1 -13 10 -16 19 -8 30 0 20 15 -8 14 -22 14 -30 1z"/>
<path d="M4510 4106 c0 -19 26 -40 35 -26 3 5 2 10 -4 10 -6 0 -8 7 -5 15 4 9
0 15 -10 15 -9 0 -16 -6 -16 -14z"/>
<path d="M2585 4100 c-3 -5 -1 -10 4 -10 6 0 11 5 11 10 0 6 -2 10 -4 10 -3 0
-8 -4 -11 -10z"/>
<path d="M2210 4080 c0 -5 7 -10 16 -10 8 0 12 5 9 10 -3 6 -10 10 -16 10 -5
0 -9 -4 -9 -10z"/>
<path d="M3720 4073 c0 -11 -5 -24 -10 -29 -7 -7 -1 -9 20 -6 31 4 38 -6 19
-25 -7 -7 -3 -10 15 -10 24 0 35 11 19 19 -5 2 -15 16 -23 32 -18 35 -40 45
-40 19z"/>
<path d="M3830 4077 c0 -10 8 -17 18 -17 9 0 13 4 7 8 -5 4 -13 11 -17 16 -5
5 -8 2 -8 -7z"/>
<path d="M3775 4070 c-3 -5 1 -10 9 -10 9 0 16 5 16 10 0 6 -4 10 -9 10 -6 0
-13 -4 -16 -10z"/>
<path d="M3168 4043 c7 -3 16 -2 19 1 4 3 -2 6 -13 5 -11 0 -14 -3 -6 -6z"/>
<path d="M3620 4031 c0 -11 4 -22 9 -25 4 -3 6 6 3 19 -5 30 -12 33 -12 6z"/>
<path d="M1266 4015 c-3 -8 -1 -17 3 -20 5 -3 11 2 15 10 3 8 1 17 -3 20 -5 3
-11 -2 -15 -10z"/>
<path d="M1330 4020 c0 -5 5 -10 11 -10 5 0 7 5 4 10 -3 6 -8 10 -11 10 -2 0
-4 -4 -4 -10z"/>
<path d="M3115 4020 c-3 -5 -1 -10 4 -10 6 0 11 5 11 10 0 6 -2 10 -4 10 -3 0
-8 -4 -11 -10z"/>
<path d="M4470 4011 c0 -25 6 -27 13 -6 4 8 2 17 -3 20 -6 4 -10 -3 -10 -14z"/>
<path d="M3650 4001 c0 -11 9 -23 20 -26 11 -3 20 -11 20 -16 0 -17 28 -9 33
10 3 14 0 17 -14 14 -11 -3 -23 3 -31 16 -16 26 -28 27 -28 2z"/>
<path d="M240 3995 c0 -8 4 -15 8 -15 5 0 9 7 9 15 0 8 -4 15 -9 15 -4 0 -8
-7 -8 -15z"/>
<path d="M2678 3963 c7 -3 16 -2 19 1 4 3 -2 6 -13 5 -11 0 -14 -3 -6 -6z"/>
<path d="M3760 3949 c0 -24 23 -21 28 4 2 10 -3 17 -12 17 -10 0 -16 -9 -16
-21z"/>
<path d="M1895 3940 c-3 -6 1 -7 9 -4 18 7 21 14 7 14 -6 0 -13 -4 -16 -10z"/>
<path d="M1228 3932 c-22 -4 -23 -16 -3 -32 9 -7 22 -9 32 -5 10 5 21 7 26 7
4 -1 7 2 7 6 0 13 -42 29 -62 24z"/>
<path d="M3730 3920 c-13 -8 -12 -10 3 -10 9 0 17 5 17 10 0 12 -1 12 -20 0z"/>
<path d="M3790 3900 c0 -5 7 -10 15 -10 8 0 15 5 15 10 0 6 -7 10 -15 10 -8 0
-15 -4 -15 -10z"/>
<path d="M1725 3860 c-3 -5 -1 -10 4 -10 6 0 11 5 11 10 0 6 -2 10 -4 10 -3 0
-8 -4 -11 -10z"/>
<path d="M1127 3848 c7 -8 10 -18 6 -21 -3 -4 25 -7 62 -7 50 0 66 3 58 11 -6
6 -28 12 -49 14 -22 1 -50 6 -64 10 -22 7 -23 6 -13 -7z"/>
<path d="M3188 3643 c6 -2 18 -2 25 0 6 3 1 5 -13 5 -14 0 -19 -2 -12 -5z"/>
<path d="M1565 3600 c3 -5 8 -10 11 -10 2 0 4 5 4 10 0 6 -5 10 -11 10 -5 0
-7 -4 -4 -10z"/>
<path d="M3491 3524 c0 -11 3 -14 6 -6 3 7 2 16 -1 19 -3 4 -6 -2 -5 -13z"/>
<path d="M3370 3510 c6 -11 16 -20 23 -19 9 0 9 2 0 6 -7 2 -13 11 -13 19 0 8
-5 14 -10 14 -7 0 -7 -6 0 -20z"/>
<path d="M1098 3503 c7 -3 16 -2 19 1 4 3 -2 6 -13 5 -11 0 -14 -3 -6 -6z"/>
<path d="M3511 3484 c0 -11 3 -14 6 -6 3 7 2 16 -1 19 -3 4 -6 -2 -5 -13z"/>
<path d="M1030 3480 c8 -5 22 -10 30 -10 13 0 13 1 0 10 -8 5 -22 10 -30 10
-13 0 -13 -1 0 -10z"/>
<path d="M3552 3395 c0 -16 2 -22 5 -12 2 9 2 23 0 30 -3 6 -5 -1 -5 -18z"/>
<path d="M295 3401 c-6 -11 9 -23 19 -14 9 9 7 23 -3 23 -6 0 -12 -4 -16 -9z"/>
<path d="M2231 3224 c0 -11 3 -14 6 -6 3 7 2 16 -1 19 -3 4 -6 -2 -5 -13z"/>
<path d="M1581 3129 c-11 -13 -21 -28 -21 -35 0 -7 -6 -19 -13 -26 -7 -7 -20
-28 -28 -45 -7 -18 -17 -33 -21 -33 -5 0 -8 -12 -8 -26 0 -14 -4 -23 -10 -19
-6 4 -10 -7 -10 -25 0 -22 -4 -31 -13 -27 -9 3 -12 -5 -9 -29 3 -21 0 -34 -7
-34 -6 0 -11 -13 -11 -30 0 -16 -4 -30 -10 -30 -5 0 -10 -18 -10 -39 0 -22 -4
-41 -9 -43 -8 -3 -15 -141 -12 -245 1 -49 21 -40 22 10 0 32 2 37 9 22 7 -16
9 -13 9 18 1 20 -3 37 -9 37 -5 0 -10 11 -10 25 0 14 4 25 9 25 5 0 11 30 15
68 8 96 17 142 27 142 5 0 9 10 9 22 0 12 6 29 13 37 8 9 19 35 26 59 6 23 16
42 21 42 6 0 10 6 10 13 0 18 24 67 33 67 4 0 7 9 7 20 0 11 3 20 8 20 4 0 13
14 21 31 18 42 1 59 -28 28z"/>
<path d="M80 3119 c0 -5 5 -7 12 -3 8 5 9 2 5 -9 -8 -20 2 -21 26 -3 25 19 21
26 -13 26 -16 0 -30 -5 -30 -11z"/>
<path d="M2180 3040 c0 -5 5 -10 10 -10 6 0 10 5 10 10 0 6 -4 10 -10 10 -5 0
-10 -4 -10 -10z"/>
<path d="M4089 3038 c0 -7 -2 -22 -3 -34 -2 -16 2 -20 16 -16 24 6 34 22 13
22 -12 0 -15 6 -10 20 4 11 2 20 -4 20 -6 0 -11 -6 -12 -12z"/>
<path d="M4050 3026 c0 -9 5 -16 10 -16 6 0 10 4 10 9 0 6 -4 13 -10 16 -5 3
-10 -1 -10 -9z"/>
<path d="M4235 2980 c-3 -5 -1 -10 4 -10 6 0 11 5 11 10 0 6 -2 10 -4 10 -3 0
-8 -4 -11 -10z"/>
<path d="M158 2963 c7 -3 16 -2 19 1 4 3 -2 6 -13 5 -11 0 -14 -3 -6 -6z"/>
<path d="M1580 2960 c0 -5 5 -10 10 -10 6 0 10 5 10 10 0 6 -4 10 -10 10 -5 0
-10 -4 -10 -10z"/>
<path d="M606 2951 c-4 -7 -5 -15 -2 -18 9 -9 19 4 14 18 -4 11 -6 11 -12 0z"/>
<path d="M4270 2940 c0 -5 5 -10 11 -10 5 0 7 5 4 10 -3 6 -8 10 -11 10 -2 0
-4 -4 -4 -10z"/>
<path d="M1720 2920 c0 -5 5 -10 11 -10 5 0 7 5 4 10 -3 6 -8 10 -11 10 -2 0
-4 -4 -4 -10z"/>
<path d="M90 2900 c0 -5 7 -10 15 -10 8 0 15 5 15 10 0 6 -7 10 -15 10 -8 0
-15 -4 -15 -10z"/>
<path d="M1980 2890 c-8 -5 -10 -10 -5 -10 6 0 17 5 25 10 8 5 11 10 5 10 -5
0 -17 -5 -25 -10z"/>
<path d="M1390 2875 c0 -8 2 -15 4 -15 2 0 6 7 10 15 3 8 1 15 -4 15 -6 0 -10
-7 -10 -15z"/>
<path d="M2028 2883 c7 -3 16 -2 19 1 4 3 -2 6 -13 5 -11 0 -14 -3 -6 -6z"/>
<path d="M1950 2859 c0 -5 5 -7 10 -4 6 3 10 8 10 11 0 2 -4 4 -10 4 -5 0 -10
-5 -10 -11z"/>
<path d="M4357 2835 c-4 -8 -3 -16 1 -19 4 -3 9 4 9 15 2 23 -3 25 -10 4z"/>
<path d="M1376 2815 c-3 -9 -6 -22 -5 -28 0 -7 5 -1 10 12 5 13 8 26 5 28 -2
2 -6 -3 -10 -12z"/>
<path d="M747 2790 c-3 -11 -1 -20 4 -20 5 0 9 2 9 4 0 2 3 11 6 20 3 9 2 16
-4 16 -5 0 -12 -9 -15 -20z"/>
<path d="M250 2780 c0 -11 6 -20 13 -20 22 0 27 11 12 26 -19 19 -25 18 -25
-6z"/>
<path d="M20 2740 c0 -13 7 -20 20 -20 13 0 20 7 20 20 0 13 -7 20 -20 20 -13
0 -20 -7 -20 -20z"/>
<path d="M771 2744 c0 -11 3 -14 6 -6 3 7 2 16 -1 19 -3 4 -6 -2 -5 -13z"/>
<path d="M4090 2750 c0 -5 7 -10 16 -10 8 0 12 5 9 10 -3 6 -10 10 -16 10 -5
0 -9 -4 -9 -10z"/>
<path d="M4150 2740 c29 -22 36 -24 45 -10 3 6 -3 10 -14 10 -12 0 -21 5 -21
10 0 6 -8 10 -17 10 -15 0 -13 -4 7 -20z"/>
<path d="M510 2691 c0 -10 19 -25 25 -20 1 2 -3 10 -11 17 -8 7 -14 8 -14 3z"/>
<path d="M1960 2650 c-9 -6 -10 -10 -3 -10 6 0 15 5 18 10 8 12 4 12 -15 0z"/>
<path d="M4060 2650 c-13 -8 -12 -10 3 -10 9 0 17 5 17 10 0 12 -1 12 -20 0z"/>
<path d="M1561 2634 c0 -11 3 -14 6 -6 3 7 2 16 -1 19 -3 4 -6 -2 -5 -13z"/>
<path d="M4030 2585 c0 -8 5 -15 10 -15 6 0 10 7 10 15 0 8 -4 15 -10 15 -5 0
-10 -7 -10 -15z"/>
<path d="M102 2583 c27 -2 69 -2 96 0 26 2 4 3 -48 3 -52 0 -74 -1 -48 -3z"/>
<path d="M350 2580 c0 -5 5 -10 10 -10 6 0 10 5 10 10 0 6 -4 10 -10 10 -5 0
-10 -4 -10 -10z"/>
<path d="M40 2553 c1 -41 41 -67 102 -65 48 1 111 28 102 44 -3 4 -15 1 -27
-7 -12 -8 -34 -15 -48 -15 -15 0 -30 -6 -33 -12 -5 -10 -7 -10 -12 0 -3 6 -12
12 -21 12 -19 0 -43 24 -43 44 0 8 -4 18 -10 21 -6 4 -10 -6 -10 -22z"/>
<path d="M705 2560 c3 -5 8 -10 11 -10 2 0 4 5 4 10 0 6 -5 10 -11 10 -5 0 -7
-4 -4 -10z"/>
<path d="M340 2539 c0 -5 5 -7 10 -4 6 3 10 8 10 11 0 2 -4 4 -10 4 -5 0 -10
-5 -10 -11z"/>
<path d="M1640 2542 c0 -5 7 -13 16 -16 10 -4 14 -1 12 6 -5 15 -28 23 -28 10z"/>
<path d="M1846 2532 c-2 -4 -1 -14 5 -22 7 -12 9 -10 9 8 0 23 -5 28 -14 14z"/>
<path d="M640 2486 c0 -9 5 -16 10 -16 6 0 10 4 10 9 0 6 -4 13 -10 16 -5 3
-10 -1 -10 -9z"/>
<path d="M1646 2455 c-3 -8 -1 -15 4 -15 6 0 10 7 10 15 0 8 -2 15 -4 15 -2 0
-6 -7 -10 -15z"/>
<path d="M1982 2450 c0 -14 2 -19 5 -12 2 6 2 18 0 25 -3 6 -5 1 -5 -13z"/>
<path d="M1727 2416 c-4 -10 -5 -21 -2 -24 9 -9 17 6 13 25 -3 17 -4 17 -11
-1z"/>
<path d="M1770 2420 c0 -5 7 -10 16 -10 8 0 12 5 9 10 -3 6 -10 10 -16 10 -5
0 -9 -4 -9 -10z"/>
<path d="M1701 2354 c0 -11 3 -14 6 -6 3 7 2 16 -1 19 -3 4 -6 -2 -5 -13z"/>
<path d="M1540 2319 c0 -5 5 -7 10 -4 6 3 10 8 10 11 0 2 -4 4 -10 4 -5 0 -10
-5 -10 -11z"/>
<path d="M968 1663 c7 -3 16 -2 19 1 4 3 -2 6 -13 5 -11 0 -14 -3 -6 -6z"/>
<path d="M731 1624 c0 -11 3 -14 6 -6 3 7 2 16 -1 19 -3 4 -6 -2 -5 -13z"/>
<path d="M600 1610 c0 -5 5 -10 11 -10 5 0 7 5 4 10 -3 6 -8 10 -11 10 -2 0
-4 -4 -4 -10z"/>
<path d="M900 1585 c-7 -9 -8 -15 -2 -15 5 0 12 7 16 15 3 8 4 15 2 15 -2 0
-9 -7 -16 -15z"/>
<path d="M1140 1570 c0 -5 5 -10 10 -10 6 0 10 5 10 10 0 6 -4 10 -10 10 -5 0
-10 -4 -10 -10z"/>
<path d="M1350 1549 c0 -5 5 -7 10 -4 6 3 10 8 10 11 0 2 -4 4 -10 4 -5 0 -10
-5 -10 -11z"/>
<path d="M1070 1540 c20 -13 33 -13 25 0 -3 6 -14 10 -23 10 -15 0 -15 -2 -2
-10z"/>
<path d="M980 1480 c0 -5 5 -10 10 -10 6 0 10 5 10 10 0 6 -4 10 -10 10 -5 0
-10 -4 -10 -10z"/>
<path d="M502 1400 c0 -14 2 -19 5 -12 2 6 2 18 0 25 -3 6 -5 1 -5 -13z"/>
<path d="M1660 1370 c0 -11 4 -20 8 -20 4 0 8 9 9 20 1 11 -2 20 -8 20 -5 0
-9 -9 -9 -20z"/>
<path d="M1430 1240 c0 -5 5 -10 10 -10 6 0 10 5 10 10 0 6 -4 10 -10 10 -5 0
-10 -4 -10 -10z"/>
<path d="M1475 1240 c-3 -5 -1 -10 4 -10 6 0 11 5 11 10 0 6 -2 10 -4 10 -3 0
-8 -4 -11 -10z"/>
<path d="M1490 1180 c0 -5 5 -10 10 -10 6 0 10 5 10 10 0 6 -4 10 -10 10 -5 0
-10 -4 -10 -10z"/>
<path d="M1386 1165 c4 -8 8 -15 10 -15 2 0 4 7 4 15 0 8 -4 15 -10 15 -5 0
-7 -7 -4 -15z"/>
<path d="M1448 1153 c7 -3 16 -2 19 1 4 3 -2 6 -13 5 -11 0 -14 -3 -6 -6z"/>
<path d="M1325 1130 c-3 -5 -2 -10 4 -10 5 0 13 5 16 10 3 6 2 10 -4 10 -5 0
-13 -4 -16 -10z"/>
<path d="M1405 1090 c-3 -5 -1 -10 4 -10 6 0 11 5 11 10 0 6 -2 10 -4 10 -3 0
-8 -4 -11 -10z"/>
<path d="M1315 1050 c-3 -5 -1 -10 4 -10 6 0 11 5 11 10 0 6 -2 10 -4 10 -3 0
-8 -4 -11 -10z"/>
<path d="M4491 768 c0 -16 2 -18 6 -8 3 8 11 18 17 22 7 5 4 8 -6 8 -12 0 -18
-7 -17 -22z"/>
<path d="M80 716 c0 -49 2 -56 20 -56 17 0 20 7 20 45 0 25 1 48 3 53 1 4 -8
8 -20 10 -22 3 -23 0 -23 -52z"/>
<path d="M4308 662 c-21 -4 -24 -22 -4 -22 8 0 16 -4 18 -9 5 -13 90 -21 85
-8 -2 7 -19 11 -38 9 -19 -1 -29 1 -22 6 16 10 -15 30 -39 24z"/>
<path d="M250 621 c0 -12 5 -21 10 -21 6 0 10 6 10 14 0 8 -4 18 -10 21 -5 3
-10 -3 -10 -14z"/>
<path d="M4440 614 c0 -10 31 -36 37 -31 3 3 -2 13 -10 22 -16 15 -27 19 -27
9z"/>
<path d="M4350 600 c0 -6 7 -10 15 -10 8 0 15 2 15 4 0 2 -7 6 -15 10 -8 3
-15 1 -15 -4z"/>
<path d="M4408 593 c7 -3 16 -2 19 1 4 3 -2 6 -13 5 -11 0 -14 -3 -6 -6z"/>
<path d="M4475 530 c3 -5 17 -10 31 -10 13 0 24 5 24 10 0 6 -14 10 -31 10
-17 0 -28 -4 -24 -10z"/>
<path d="M4188 523 c6 -2 18 -2 25 0 6 3 1 5 -13 5 -14 0 -19 -2 -12 -5z"/>
<path d="M250 489 c0 -11 4 -18 10 -14 5 3 7 12 3 20 -7 21 -13 19 -13 -6z"/>
<path d="M4140 492 c0 -7 51 -27 97 -39 13 -3 35 -2 49 1 42 11 14 28 -45 28
-28 -1 -51 3 -51 9 0 5 -11 9 -25 9 -14 0 -25 -3 -25 -8z"/>
<path d="M4350 485 c7 -8 21 -15 31 -15 11 0 19 7 19 15 0 10 -10 15 -31 15
-27 0 -30 -2 -19 -15z"/>
<path d="M4520 490 c0 -5 -16 -10 -35 -10 -19 0 -35 -4 -35 -10 0 -10 6 -12
40 -12 71 0 80 2 80 22 0 15 -7 20 -25 20 -14 0 -25 -4 -25 -10z"/>
<path d="M100 445 c0 -12 -6 -15 -19 -10 -24 7 -71 -4 -71 -17 0 -5 4 -7 10
-3 14 9 60 -5 60 -19 0 -15 -41 -61 -63 -69 -18 -7 -24 -37 -7 -37 6 0 10 3
10 8 0 4 14 16 30 27 16 11 30 28 30 38 0 9 5 17 10 17 6 0 10 9 10 21 0 11 5
17 10 14 6 -3 10 3 10 14 0 11 -4 23 -10 26 -5 3 -10 -1 -10 -10z"/>
<path d="M231 444 c0 -11 3 -14 6 -6 3 7 2 16 -1 19 -3 4 -6 -2 -5 -13z"/>
<path d="M4405 429 c-16 -11 -25 -19 -20 -20 6 0 -1 -5 -14 -10 -16 -6 -28 -6
-35 1 -5 5 -19 9 -30 9 -17 -1 -18 -2 -3 -6 9 -2 17 -8 17 -13 0 -11 49 -19
56 -9 3 5 19 9 37 9 29 0 30 1 11 14 -18 14 -18 15 5 24 14 5 20 11 15 14 -5
3 -22 -3 -39 -13z"/>
<path d="M4260 430 c0 -5 9 -10 21 -10 11 0 17 5 14 10 -3 6 -13 10 -21 10 -8
0 -14 -4 -14 -10z"/>
<path d="M205 416 c-18 -19 -26 -36 -18 -36 9 0 37 40 31 45 -2 2 -8 -2 -13
-9z"/>
<path d="M560 325 c0 -14 5 -25 10 -25 6 0 10 -7 10 -15 0 -8 5 -15 10 -15 6
0 10 7 10 15 0 8 -4 15 -10 15 -5 0 -10 11 -10 25 0 14 -4 25 -10 25 -5 0 -10
-11 -10 -25z"/>
<path d="M105 320 c3 -5 8 -10 11 -10 2 0 4 5 4 10 0 6 -5 10 -11 10 -5 0 -7
-4 -4 -10z"/>
<path d="M80 300 c0 -5 5 -10 10 -10 6 0 10 5 10 10 0 6 -4 10 -10 10 -5 0
-10 -4 -10 -10z"/>
<path d="M31 274 c-7 -8 -10 -18 -6 -22 4 -4 10 -1 12 6 3 6 14 12 24 12 11 0
17 5 14 10 -9 14 -28 12 -44 -6z"/>
<path d="M4118 151 c-20 -4 -43 -12 -50 -18 -7 -6 -25 -13 -39 -16 -30 -8 -71
-41 -67 -55 2 -5 -8 -19 -21 -31 -31 -27 -23 -36 15 -16 16 8 26 15 23 15 -4
0 10 18 30 39 25 26 52 43 81 50 25 7 54 16 65 21 11 5 29 11 40 13 34 8 -37
5 -77 -2z"/>
<path d="M4278 153 c6 -2 18 -2 25 0 6 3 1 5 -13 5 -14 0 -19 -2 -12 -5z"/>
<path d="M705 130 c3 -5 8 -10 11 -10 2 0 4 5 4 10 0 6 -5 10 -11 10 -5 0 -7
-4 -4 -10z"/>
<path d="M3740 125 c-8 -9 -8 -15 -2 -15 12 0 26 19 19 26 -2 2 -10 -2 -17
-11z"/>
<path d="M850 49 c0 -5 5 -7 10 -4 6 3 10 8 10 11 0 2 -4 4 -10 4 -5 0 -10 -5
-10 -11z"/>
<path d="M870 32 c0 -5 7 -9 15 -9 8 0 15 4 15 9 0 4 -7 8 -15 8 -8 0 -15 -4
-15 -8z"/>
<path d="M930 10 c0 -5 5 -10 10 -10 6 0 10 5 10 10 0 6 -4 10 -10 10 -5 0
-10 -4 -10 -10z"/>
</g>
</svg>
